<svg width="1306" height="600" viewBox="0 0 1306 600" fill="none" xmlns="http://www.w3.org/2000/svg">
<rect x="-134" width="1440" height="600" fill="#2E2F42"/>
<g filter="url(#filter0_d_296605_13)">
<rect x="502" y="356" width="169" height="56" rx="4" fill="#4D5AE5" shape-rendering="crispEdges"/>
<path d="M544.227 383V383.625C544.227 384.484 544.115 385.255 543.891 385.938C543.667 386.62 543.346 387.201 542.93 387.68C542.518 388.159 542.023 388.526 541.445 388.781C540.867 389.031 540.227 389.156 539.523 389.156C538.826 389.156 538.188 389.031 537.609 388.781C537.036 388.526 536.539 388.159 536.117 387.68C535.695 387.201 535.367 386.62 535.133 385.938C534.904 385.255 534.789 384.484 534.789 383.625V383C534.789 382.141 534.904 381.372 535.133 380.695C535.362 380.013 535.685 379.432 536.102 378.953C536.523 378.469 537.021 378.102 537.594 377.852C538.172 377.596 538.81 377.469 539.508 377.469C540.211 377.469 540.852 377.596 541.43 377.852C542.008 378.102 542.505 378.469 542.922 378.953C543.339 379.432 543.659 380.013 543.883 380.695C544.112 381.372 544.227 382.141 544.227 383ZM542.266 383.625V382.984C542.266 382.349 542.203 381.789 542.078 381.305C541.958 380.815 541.779 380.406 541.539 380.078C541.305 379.745 541.016 379.495 540.672 379.328C540.328 379.156 539.94 379.07 539.508 379.07C539.076 379.07 538.69 379.156 538.352 379.328C538.013 379.495 537.724 379.745 537.484 380.078C537.25 380.406 537.07 380.815 536.945 381.305C536.82 381.789 536.758 382.349 536.758 382.984V383.625C536.758 384.26 536.82 384.823 536.945 385.312C537.07 385.802 537.253 386.216 537.492 386.555C537.737 386.888 538.029 387.141 538.367 387.312C538.706 387.479 539.091 387.562 539.523 387.562C539.961 387.562 540.349 387.479 540.688 387.312C541.026 387.141 541.312 386.888 541.547 386.555C541.781 386.216 541.958 385.802 542.078 385.312C542.203 384.823 542.266 384.26 542.266 383.625ZM548.531 382.156V389H546.648V380.547H548.445L548.531 382.156ZM551.117 380.492L551.101 382.242C550.986 382.221 550.861 382.206 550.726 382.195C550.596 382.185 550.466 382.18 550.335 382.18C550.012 382.18 549.729 382.227 549.484 382.32C549.239 382.409 549.033 382.539 548.867 382.711C548.705 382.878 548.58 383.081 548.492 383.32C548.403 383.56 548.351 383.828 548.335 384.125L547.906 384.156C547.906 383.625 547.958 383.133 548.062 382.68C548.166 382.227 548.322 381.828 548.531 381.484C548.744 381.141 549.01 380.872 549.328 380.68C549.65 380.487 550.023 380.391 550.445 380.391C550.559 380.391 550.682 380.401 550.812 380.422C550.947 380.443 551.049 380.466 551.117 380.492ZM557.936 387.25V377H559.827V389H558.116L557.936 387.25ZM552.436 384.867V384.703C552.436 384.062 552.512 383.479 552.663 382.953C552.814 382.422 553.033 381.966 553.319 381.586C553.606 381.201 553.954 380.906 554.366 380.703C554.777 380.495 555.241 380.391 555.757 380.391C556.267 380.391 556.715 380.49 557.1 380.688C557.486 380.885 557.814 381.169 558.085 381.539C558.356 381.904 558.572 382.341 558.733 382.852C558.895 383.357 559.009 383.919 559.077 384.539V385.062C559.009 385.667 558.895 386.219 558.733 386.719C558.572 387.219 558.356 387.651 558.085 388.016C557.814 388.38 557.483 388.661 557.093 388.859C556.707 389.057 556.257 389.156 555.741 389.156C555.231 389.156 554.77 389.049 554.358 388.836C553.952 388.622 553.606 388.323 553.319 387.938C553.033 387.552 552.814 387.099 552.663 386.578C552.512 386.052 552.436 385.482 552.436 384.867ZM554.319 384.703V384.867C554.319 385.253 554.353 385.612 554.421 385.945C554.494 386.279 554.606 386.573 554.757 386.828C554.908 387.078 555.103 387.276 555.343 387.422C555.587 387.562 555.879 387.633 556.218 387.633C556.645 387.633 556.996 387.539 557.272 387.352C557.548 387.164 557.764 386.911 557.921 386.594C558.082 386.271 558.191 385.911 558.249 385.516V384.102C558.218 383.794 558.152 383.508 558.053 383.242C557.96 382.977 557.832 382.745 557.671 382.547C557.509 382.344 557.309 382.188 557.069 382.078C556.835 381.964 556.556 381.906 556.233 381.906C555.889 381.906 555.598 381.979 555.358 382.125C555.119 382.271 554.921 382.471 554.764 382.727C554.613 382.982 554.501 383.279 554.428 383.617C554.356 383.956 554.319 384.318 554.319 384.703ZM566.162 389.156C565.537 389.156 564.972 389.055 564.467 388.852C563.967 388.643 563.54 388.354 563.186 387.984C562.837 387.615 562.568 387.18 562.381 386.68C562.193 386.18 562.1 385.641 562.1 385.062V384.75C562.1 384.089 562.196 383.49 562.389 382.953C562.581 382.417 562.85 381.958 563.193 381.578C563.537 381.193 563.943 380.898 564.412 380.695C564.881 380.492 565.389 380.391 565.936 380.391C566.54 380.391 567.068 380.492 567.522 380.695C567.975 380.898 568.35 381.185 568.647 381.555C568.949 381.919 569.173 382.354 569.318 382.859C569.469 383.365 569.545 383.922 569.545 384.531V385.336H563.014V383.984H567.686V383.836C567.675 383.497 567.608 383.18 567.483 382.883C567.363 382.586 567.178 382.346 566.928 382.164C566.678 381.982 566.344 381.891 565.928 381.891C565.615 381.891 565.337 381.958 565.092 382.094C564.852 382.224 564.652 382.414 564.49 382.664C564.329 382.914 564.204 383.216 564.115 383.57C564.032 383.919 563.99 384.312 563.99 384.75V385.062C563.99 385.432 564.04 385.776 564.139 386.094C564.243 386.406 564.394 386.68 564.592 386.914C564.79 387.148 565.029 387.333 565.311 387.469C565.592 387.599 565.912 387.664 566.272 387.664C566.725 387.664 567.128 387.573 567.483 387.391C567.837 387.208 568.144 386.951 568.404 386.617L569.397 387.578C569.214 387.844 568.977 388.099 568.686 388.344C568.394 388.583 568.037 388.779 567.615 388.93C567.199 389.081 566.714 389.156 566.162 389.156ZM573.544 382.156V389H571.662V380.547H573.458L573.544 382.156ZM576.13 380.492L576.115 382.242C576 382.221 575.875 382.206 575.74 382.195C575.609 382.185 575.479 382.18 575.349 382.18C575.026 382.18 574.742 382.227 574.498 382.32C574.253 382.409 574.047 382.539 573.88 382.711C573.719 382.878 573.594 383.081 573.505 383.32C573.417 383.56 573.365 383.828 573.349 384.125L572.919 384.156C572.919 383.625 572.971 383.133 573.076 382.68C573.18 382.227 573.336 381.828 573.544 381.484C573.758 381.141 574.024 380.872 574.341 380.68C574.664 380.487 575.037 380.391 575.458 380.391C575.573 380.391 575.695 380.401 575.826 380.422C575.961 380.443 576.063 380.466 576.13 380.492ZM588.746 386.07C588.746 385.836 588.71 385.628 588.637 385.445C588.569 385.263 588.447 385.096 588.27 384.945C588.093 384.794 587.843 384.648 587.52 384.508C587.202 384.362 586.796 384.214 586.301 384.062C585.759 383.896 585.259 383.711 584.801 383.508C584.348 383.299 583.952 383.06 583.613 382.789C583.275 382.513 583.012 382.198 582.824 381.844C582.637 381.484 582.543 381.07 582.543 380.602C582.543 380.138 582.639 379.716 582.832 379.336C583.03 378.956 583.309 378.628 583.668 378.352C584.033 378.07 584.462 377.854 584.957 377.703C585.452 377.547 585.999 377.469 586.598 377.469C587.442 377.469 588.168 377.625 588.778 377.938C589.392 378.25 589.863 378.669 590.192 379.195C590.525 379.721 590.692 380.302 590.692 380.938H588.746C588.746 380.562 588.666 380.232 588.504 379.945C588.348 379.654 588.108 379.424 587.785 379.258C587.468 379.091 587.064 379.008 586.574 379.008C586.111 379.008 585.725 379.078 585.418 379.219C585.111 379.359 584.882 379.549 584.731 379.789C584.58 380.029 584.504 380.299 584.504 380.602C584.504 380.815 584.554 381.01 584.653 381.188C584.751 381.359 584.903 381.521 585.106 381.672C585.309 381.818 585.564 381.956 585.871 382.086C586.179 382.216 586.541 382.341 586.957 382.461C587.587 382.648 588.137 382.857 588.606 383.086C589.074 383.31 589.465 383.565 589.778 383.852C590.09 384.138 590.324 384.464 590.481 384.828C590.637 385.188 590.715 385.596 590.715 386.055C590.715 386.534 590.619 386.966 590.426 387.352C590.233 387.732 589.957 388.057 589.598 388.328C589.244 388.594 588.817 388.799 588.317 388.945C587.822 389.086 587.27 389.156 586.66 389.156C586.113 389.156 585.574 389.083 585.043 388.938C584.517 388.792 584.038 388.57 583.606 388.273C583.173 387.971 582.83 387.596 582.574 387.148C582.319 386.695 582.192 386.167 582.192 385.562H584.153C584.153 385.932 584.215 386.247 584.34 386.508C584.47 386.768 584.65 386.982 584.879 387.148C585.108 387.31 585.374 387.43 585.676 387.508C585.983 387.586 586.311 387.625 586.66 387.625C587.119 387.625 587.501 387.56 587.809 387.43C588.121 387.299 588.356 387.117 588.512 386.883C588.668 386.648 588.746 386.378 588.746 386.07ZM596.628 389.156C596.003 389.156 595.438 389.055 594.933 388.852C594.433 388.643 594.006 388.354 593.652 387.984C593.303 387.615 593.035 387.18 592.847 386.68C592.66 386.18 592.566 385.641 592.566 385.062V384.75C592.566 384.089 592.662 383.49 592.855 382.953C593.048 382.417 593.316 381.958 593.66 381.578C594.003 381.193 594.41 380.898 594.878 380.695C595.347 380.492 595.855 380.391 596.402 380.391C597.006 380.391 597.535 380.492 597.988 380.695C598.441 380.898 598.816 381.185 599.113 381.555C599.415 381.919 599.639 382.354 599.785 382.859C599.936 383.365 600.011 383.922 600.011 384.531V385.336H593.48V383.984H598.152V383.836C598.141 383.497 598.074 383.18 597.949 382.883C597.829 382.586 597.644 382.346 597.394 382.164C597.144 381.982 596.811 381.891 596.394 381.891C596.082 381.891 595.803 381.958 595.558 382.094C595.319 382.224 595.118 382.414 594.957 382.664C594.795 382.914 594.67 383.216 594.582 383.57C594.498 383.919 594.457 384.312 594.457 384.75V385.062C594.457 385.432 594.506 385.776 594.605 386.094C594.709 386.406 594.86 386.68 595.058 386.914C595.256 387.148 595.496 387.333 595.777 387.469C596.058 387.599 596.378 387.664 596.738 387.664C597.191 387.664 597.595 387.573 597.949 387.391C598.303 387.208 598.61 386.951 598.871 386.617L599.863 387.578C599.681 387.844 599.444 388.099 599.152 388.344C598.86 388.583 598.503 388.779 598.082 388.93C597.665 389.081 597.181 389.156 596.628 389.156ZM604.011 382.156V389H602.128V380.547H603.925L604.011 382.156ZM606.597 380.492L606.581 382.242C606.466 382.221 606.341 382.206 606.206 382.195C606.076 382.185 605.946 382.18 605.815 382.18C605.492 382.18 605.209 382.227 604.964 382.32C604.719 382.409 604.513 382.539 604.347 382.711C604.185 382.878 604.06 383.081 603.972 383.32C603.883 383.56 603.831 383.828 603.815 384.125L603.386 384.156C603.386 383.625 603.438 383.133 603.542 382.68C603.646 382.227 603.802 381.828 604.011 381.484C604.224 381.141 604.49 380.872 604.808 380.68C605.13 380.487 605.503 380.391 605.925 380.391C606.039 380.391 606.162 380.401 606.292 380.422C606.427 380.443 606.529 380.466 606.597 380.492ZM611.307 387.508L613.377 380.547H615.33L612.393 389H611.174L611.307 387.508ZM609.721 380.547L611.83 387.539L611.932 389H610.713L607.76 380.547H609.721ZM619.15 380.547V389H617.259V380.547H619.15ZM617.134 378.328C617.134 378.042 617.228 377.805 617.416 377.617C617.608 377.424 617.874 377.328 618.213 377.328C618.546 377.328 618.809 377.424 619.002 377.617C619.194 377.805 619.291 378.042 619.291 378.328C619.291 378.609 619.194 378.844 619.002 379.031C618.809 379.219 618.546 379.312 618.213 379.312C617.874 379.312 617.608 379.219 617.416 379.031C617.228 378.844 617.134 378.609 617.134 378.328ZM625.306 387.656C625.613 387.656 625.889 387.596 626.134 387.477C626.384 387.352 626.584 387.18 626.735 386.961C626.892 386.742 626.978 386.49 626.993 386.203H628.767C628.756 386.75 628.595 387.247 628.282 387.695C627.97 388.143 627.556 388.5 627.04 388.766C626.524 389.026 625.954 389.156 625.329 389.156C624.683 389.156 624.121 389.047 623.642 388.828C623.162 388.604 622.764 388.297 622.446 387.906C622.129 387.516 621.889 387.065 621.728 386.555C621.571 386.044 621.493 385.497 621.493 384.914V384.641C621.493 384.057 621.571 383.51 621.728 383C621.889 382.484 622.129 382.031 622.446 381.641C622.764 381.25 623.162 380.945 623.642 380.727C624.121 380.503 624.681 380.391 625.321 380.391C625.998 380.391 626.592 380.526 627.103 380.797C627.613 381.062 628.014 381.435 628.306 381.914C628.603 382.388 628.756 382.94 628.767 383.57H626.993C626.978 383.258 626.899 382.977 626.759 382.727C626.623 382.471 626.431 382.268 626.181 382.117C625.936 381.966 625.642 381.891 625.298 381.891C624.918 381.891 624.603 381.969 624.353 382.125C624.103 382.276 623.907 382.484 623.767 382.75C623.626 383.01 623.524 383.305 623.462 383.633C623.405 383.956 623.376 384.292 623.376 384.641V384.914C623.376 385.263 623.405 385.602 623.462 385.93C623.519 386.258 623.618 386.552 623.759 386.812C623.905 387.068 624.103 387.273 624.353 387.43C624.603 387.581 624.92 387.656 625.306 387.656ZM634.578 389.156C633.953 389.156 633.388 389.055 632.883 388.852C632.383 388.643 631.956 388.354 631.602 387.984C631.253 387.615 630.985 387.18 630.797 386.68C630.61 386.18 630.516 385.641 630.516 385.062V384.75C630.516 384.089 630.612 383.49 630.805 382.953C630.998 382.417 631.266 381.958 631.61 381.578C631.953 381.193 632.36 380.898 632.828 380.695C633.297 380.492 633.805 380.391 634.352 380.391C634.956 380.391 635.485 380.492 635.938 380.695C636.391 380.898 636.766 381.185 637.063 381.555C637.365 381.919 637.589 382.354 637.735 382.859C637.886 383.365 637.961 383.922 637.961 384.531V385.336H631.43V383.984H636.102V383.836C636.091 383.497 636.024 383.18 635.899 382.883C635.779 382.586 635.594 382.346 635.344 382.164C635.094 381.982 634.761 381.891 634.344 381.891C634.032 381.891 633.753 381.958 633.508 382.094C633.269 382.224 633.068 382.414 632.907 382.664C632.745 382.914 632.62 383.216 632.532 383.57C632.448 383.919 632.407 384.312 632.407 384.75V385.062C632.407 385.432 632.456 385.776 632.555 386.094C632.659 386.406 632.81 386.68 633.008 386.914C633.206 387.148 633.446 387.333 633.727 387.469C634.008 387.599 634.328 387.664 634.688 387.664C635.141 387.664 635.545 387.573 635.899 387.391C636.253 387.208 636.56 386.951 636.821 386.617L637.813 387.578C637.631 387.844 637.394 388.099 637.102 388.344C636.81 388.583 636.453 388.779 636.032 388.93C635.615 389.081 635.131 389.156 634.578 389.156Z" fill="white"/>
</g>
<path d="M369.283 230.602V237H348.092V230.602H369.283ZM350.772 197.188V237H342.568V197.188H350.772ZM366.522 213.402V219.637H348.092V213.402H366.522ZM369.256 197.188V203.613H348.092V197.188H369.256ZM384.239 237H376.31V204.789C376.31 202.547 376.747 200.66 377.622 199.129C378.515 197.579 379.764 196.413 381.368 195.629C382.991 194.827 384.914 194.426 387.138 194.426C387.867 194.426 388.569 194.48 389.243 194.59C389.918 194.681 390.574 194.799 391.212 194.945L391.13 200.879C390.783 200.788 390.419 200.724 390.036 200.688C389.653 200.651 389.207 200.633 388.696 200.633C387.748 200.633 386.937 200.797 386.263 201.125C385.606 201.435 385.105 201.9 384.759 202.52C384.412 203.139 384.239 203.896 384.239 204.789V237ZM390.145 207.414V212.992H371.907V207.414H390.145ZM405.43 237H397.5V204.789C397.5 202.547 397.937 200.66 398.812 199.129C399.706 197.579 400.954 196.413 402.558 195.629C404.181 194.827 406.104 194.426 408.328 194.426C409.057 194.426 409.759 194.48 410.433 194.59C411.108 194.681 411.764 194.799 412.402 194.945L412.32 200.879C411.974 200.788 411.609 200.724 411.226 200.688C410.844 200.651 410.397 200.633 409.887 200.633C408.939 200.633 408.127 200.797 407.453 201.125C406.797 201.435 406.295 201.9 405.949 202.52C405.603 203.139 405.43 203.896 405.43 204.789V237ZM411.336 207.414V212.992H393.097V207.414H411.336ZM429.546 237.547C427.249 237.547 425.189 237.182 423.366 236.453C421.543 235.706 419.994 234.676 418.717 233.363C417.46 232.051 416.494 230.529 415.819 228.797C415.145 227.047 414.807 225.188 414.807 223.219V222.125C414.807 219.883 415.126 217.832 415.764 215.973C416.402 214.113 417.314 212.5 418.499 211.133C419.702 209.766 421.16 208.717 422.874 207.988C424.587 207.241 426.52 206.867 428.671 206.867C430.767 206.867 432.626 207.214 434.249 207.906C435.871 208.599 437.229 209.583 438.323 210.859C439.435 212.135 440.273 213.667 440.839 215.453C441.404 217.221 441.686 219.19 441.686 221.359V224.641H418.171V219.391H433.948V218.789C433.948 217.695 433.747 216.72 433.346 215.863C432.964 214.988 432.38 214.296 431.596 213.785C430.813 213.275 429.81 213.02 428.589 213.02C427.55 213.02 426.656 213.247 425.909 213.703C425.162 214.159 424.551 214.797 424.077 215.617C423.621 216.438 423.275 217.404 423.038 218.516C422.819 219.609 422.71 220.812 422.71 222.125V223.219C422.71 224.404 422.874 225.497 423.202 226.5C423.548 227.503 424.031 228.368 424.651 229.098C425.289 229.827 426.055 230.392 426.948 230.793C427.859 231.194 428.889 231.395 430.038 231.395C431.46 231.395 432.781 231.121 434.003 230.574C435.242 230.009 436.309 229.161 437.202 228.031L441.03 232.188C440.41 233.081 439.563 233.938 438.487 234.758C437.43 235.578 436.154 236.253 434.659 236.781C433.164 237.292 431.46 237.547 429.546 237.547ZM459.513 231.395C460.479 231.395 461.336 231.212 462.084 230.848C462.831 230.465 463.414 229.936 463.834 229.262C464.271 228.569 464.499 227.758 464.517 226.828H471.927C471.909 228.906 471.353 230.757 470.259 232.379C469.166 233.983 467.698 235.25 465.857 236.18C464.016 237.091 461.956 237.547 459.677 237.547C457.38 237.547 455.375 237.164 453.662 236.398C451.966 235.633 450.554 234.576 449.423 233.227C448.293 231.859 447.446 230.273 446.88 228.469C446.315 226.646 446.033 224.695 446.033 222.617V221.824C446.033 219.728 446.315 217.777 446.88 215.973C447.446 214.15 448.293 212.564 449.423 211.215C450.554 209.848 451.966 208.781 453.662 208.016C455.357 207.25 457.344 206.867 459.623 206.867C462.047 206.867 464.171 207.332 465.994 208.262C467.835 209.191 469.275 210.522 470.314 212.254C471.371 213.967 471.909 216 471.927 218.352H464.517C464.499 217.367 464.289 216.474 463.888 215.672C463.505 214.87 462.94 214.232 462.193 213.758C461.464 213.266 460.561 213.02 459.486 213.02C458.338 213.02 457.399 213.266 456.67 213.758C455.94 214.232 455.375 214.888 454.974 215.727C454.573 216.547 454.291 217.486 454.127 218.543C453.981 219.582 453.908 220.676 453.908 221.824V222.617C453.908 223.766 453.981 224.868 454.127 225.926C454.272 226.983 454.546 227.922 454.947 228.742C455.366 229.562 455.94 230.21 456.67 230.684C457.399 231.158 458.347 231.395 459.513 231.395ZM492.106 207.414V212.992H474.879V207.414H492.106ZM479.145 200.113H487.02V228.086C487.02 228.943 487.129 229.599 487.348 230.055C487.585 230.51 487.931 230.829 488.387 231.012C488.843 231.176 489.417 231.258 490.11 231.258C490.602 231.258 491.04 231.24 491.422 231.203C491.823 231.148 492.161 231.094 492.434 231.039L492.461 236.836C491.787 237.055 491.058 237.228 490.274 237.355C489.49 237.483 488.624 237.547 487.676 237.547C485.944 237.547 484.431 237.264 483.137 236.699C481.861 236.116 480.877 235.186 480.184 233.91C479.491 232.634 479.145 230.957 479.145 228.879V200.113ZM506.023 207.414V237H498.12V207.414H506.023ZM497.628 199.703C497.628 198.555 498.029 197.607 498.831 196.859C499.633 196.112 500.709 195.738 502.058 195.738C503.389 195.738 504.455 196.112 505.257 196.859C506.077 197.607 506.488 198.555 506.488 199.703C506.488 200.852 506.077 201.799 505.257 202.547C504.455 203.294 503.389 203.668 502.058 203.668C500.709 203.668 499.633 203.294 498.831 202.547C498.029 201.799 497.628 200.852 497.628 199.703ZM523.713 231.258L530.276 207.414H538.506L528.526 237H523.549L523.713 231.258ZM519.201 207.414L525.791 231.285L525.928 237H520.924L510.944 207.414H519.201ZM556.388 237.547C554.091 237.547 552.031 237.182 550.208 236.453C548.385 235.706 546.836 234.676 545.56 233.363C544.302 232.051 543.336 230.529 542.661 228.797C541.987 227.047 541.65 225.188 541.65 223.219V222.125C541.65 219.883 541.969 217.832 542.607 215.973C543.245 214.113 544.156 212.5 545.341 211.133C546.544 209.766 548.002 208.717 549.716 207.988C551.429 207.241 553.362 206.867 555.513 206.867C557.609 206.867 559.469 207.214 561.091 207.906C562.713 208.599 564.071 209.583 565.165 210.859C566.277 212.135 567.116 213.667 567.681 215.453C568.246 217.221 568.528 219.19 568.528 221.359V224.641H545.013V219.391H560.79V218.789C560.79 217.695 560.59 216.72 560.189 215.863C559.806 214.988 559.222 214.296 558.439 213.785C557.655 213.275 556.652 213.02 555.431 213.02C554.392 213.02 553.498 213.247 552.751 213.703C552.004 214.159 551.393 214.797 550.919 215.617C550.463 216.438 550.117 217.404 549.88 218.516C549.661 219.609 549.552 220.812 549.552 222.125V223.219C549.552 224.404 549.716 225.497 550.044 226.5C550.39 227.503 550.873 228.368 551.493 229.098C552.131 229.827 552.897 230.392 553.79 230.793C554.702 231.194 555.732 231.395 556.88 231.395C558.302 231.395 559.623 231.121 560.845 230.574C562.084 230.009 563.151 229.161 564.044 228.031L567.872 232.188C567.252 233.081 566.405 233.938 565.329 234.758C564.272 235.578 562.996 236.253 561.501 236.781C560.006 237.292 558.302 237.547 556.388 237.547ZM610.417 226.582C610.417 225.871 610.307 225.233 610.089 224.668C609.888 224.085 609.505 223.556 608.94 223.082C608.375 222.59 607.582 222.107 606.561 221.633C605.541 221.159 604.219 220.667 602.597 220.156C600.792 219.573 599.078 218.917 597.456 218.188C595.852 217.458 594.43 216.611 593.19 215.645C591.969 214.66 591.003 213.521 590.292 212.227C589.599 210.932 589.253 209.428 589.253 207.715C589.253 206.056 589.617 204.552 590.347 203.203C591.076 201.836 592.097 200.669 593.409 199.703C594.722 198.719 596.271 197.962 598.057 197.434C599.862 196.905 601.84 196.641 603.991 196.641C606.926 196.641 609.487 197.169 611.675 198.227C613.862 199.284 615.557 200.733 616.761 202.574C617.982 204.415 618.593 206.521 618.593 208.891H610.444C610.444 207.724 610.198 206.703 609.706 205.828C609.232 204.935 608.503 204.233 607.518 203.723C606.552 203.212 605.331 202.957 603.854 202.957C602.432 202.957 601.248 203.176 600.3 203.613C599.352 204.033 598.641 204.607 598.167 205.336C597.693 206.047 597.456 206.849 597.456 207.742C597.456 208.417 597.62 209.027 597.948 209.574C598.294 210.121 598.805 210.632 599.479 211.105C600.154 211.579 600.983 212.026 601.968 212.445C602.952 212.865 604.091 213.275 605.386 213.676C607.555 214.332 609.46 215.07 611.1 215.891C612.759 216.711 614.145 217.632 615.257 218.652C616.369 219.673 617.207 220.831 617.772 222.125C618.337 223.419 618.62 224.887 618.62 226.527C618.62 228.259 618.283 229.809 617.608 231.176C616.934 232.543 615.959 233.701 614.682 234.648C613.406 235.596 611.884 236.316 610.116 236.809C608.348 237.301 606.37 237.547 604.182 237.547C602.214 237.547 600.272 237.292 598.358 236.781C596.444 236.253 594.703 235.46 593.136 234.402C591.586 233.345 590.347 231.996 589.417 230.355C588.487 228.715 588.022 226.773 588.022 224.531H596.253C596.253 225.771 596.444 226.819 596.827 227.676C597.21 228.533 597.748 229.225 598.44 229.754C599.151 230.283 599.99 230.665 600.956 230.902C601.94 231.139 603.016 231.258 604.182 231.258C605.604 231.258 606.771 231.057 607.682 230.656C608.612 230.255 609.296 229.699 609.733 228.988C610.189 228.277 610.417 227.475 610.417 226.582ZM623.568 222.508V221.934C623.568 219.764 623.878 217.768 624.498 215.945C625.118 214.104 626.02 212.509 627.205 211.16C628.39 209.811 629.848 208.763 631.58 208.016C633.312 207.25 635.299 206.867 637.541 206.867C639.783 206.867 641.779 207.25 643.529 208.016C645.279 208.763 646.747 209.811 647.931 211.16C649.135 212.509 650.046 214.104 650.666 215.945C651.286 217.768 651.595 219.764 651.595 221.934V222.508C651.595 224.659 651.286 226.655 650.666 228.496C650.046 230.319 649.135 231.914 647.931 233.281C646.747 234.63 645.288 235.678 643.556 236.426C641.825 237.173 639.838 237.547 637.595 237.547C635.353 237.547 633.357 237.173 631.607 236.426C629.875 235.678 628.408 234.63 627.205 233.281C626.02 231.914 625.118 230.319 624.498 228.496C623.878 226.655 623.568 224.659 623.568 222.508ZM631.443 221.934V222.508C631.443 223.747 631.552 224.905 631.771 225.98C631.99 227.056 632.336 228.004 632.81 228.824C633.302 229.626 633.941 230.255 634.724 230.711C635.508 231.167 636.465 231.395 637.595 231.395C638.689 231.395 639.628 231.167 640.412 230.711C641.196 230.255 641.825 229.626 642.299 228.824C642.773 228.004 643.119 227.056 643.338 225.98C643.575 224.905 643.693 223.747 643.693 222.508V221.934C643.693 220.73 643.575 219.6 643.338 218.543C643.119 217.467 642.763 216.52 642.271 215.699C641.797 214.861 641.168 214.204 640.385 213.73C639.601 213.257 638.653 213.02 637.541 213.02C636.429 213.02 635.481 213.257 634.697 213.73C633.931 214.204 633.302 214.861 632.81 215.699C632.336 216.52 631.99 217.467 631.771 218.543C631.552 219.6 631.443 220.73 631.443 221.934ZM665.868 195V237H657.965V195H665.868ZM690.996 229.918V207.414H698.871V237H691.46L690.996 229.918ZM691.871 223.848L694.195 223.793C694.195 225.762 693.967 227.594 693.511 229.289C693.056 230.966 692.372 232.424 691.46 233.664C690.549 234.885 689.401 235.842 688.015 236.535C686.63 237.21 684.998 237.547 683.121 237.547C681.681 237.547 680.35 237.346 679.128 236.945C677.925 236.526 676.886 235.879 676.011 235.004C675.154 234.111 674.48 232.971 673.988 231.586C673.514 230.182 673.277 228.496 673.277 226.527V207.414H681.152V226.582C681.152 227.457 681.252 228.195 681.453 228.797C681.671 229.398 681.972 229.891 682.355 230.273C682.738 230.656 683.184 230.93 683.695 231.094C684.223 231.258 684.807 231.34 685.445 231.34C687.067 231.34 688.343 231.012 689.273 230.355C690.221 229.699 690.886 228.806 691.269 227.676C691.67 226.527 691.871 225.251 691.871 223.848ZM720.498 207.414V212.992H703.272V207.414H720.498ZM707.537 200.113H715.412V228.086C715.412 228.943 715.522 229.599 715.741 230.055C715.978 230.51 716.324 230.829 716.78 231.012C717.235 231.176 717.81 231.258 718.502 231.258C718.995 231.258 719.432 231.24 719.815 231.203C720.216 231.148 720.553 231.094 720.827 231.039L720.854 236.836C720.179 237.055 719.45 237.228 718.666 237.355C717.883 237.483 717.017 237.547 716.069 237.547C714.337 237.547 712.824 237.264 711.53 236.699C710.254 236.116 709.269 235.186 708.577 233.91C707.884 232.634 707.537 230.957 707.537 228.879V200.113ZM734.415 207.414V237H726.513V207.414H734.415ZM726.021 199.703C726.021 198.555 726.422 197.607 727.224 196.859C728.026 196.112 729.101 195.738 730.45 195.738C731.781 195.738 732.848 196.112 733.65 196.859C734.47 197.607 734.88 198.555 734.88 199.703C734.88 200.852 734.47 201.799 733.65 202.547C732.848 203.294 731.781 203.668 730.45 203.668C729.101 203.668 728.026 203.294 727.224 202.547C726.422 201.799 726.021 200.852 726.021 199.703ZM740.785 222.508V221.934C740.785 219.764 741.095 217.768 741.715 215.945C742.335 214.104 743.237 212.509 744.422 211.16C745.607 209.811 747.065 208.763 748.797 208.016C750.529 207.25 752.516 206.867 754.758 206.867C757 206.867 758.996 207.25 760.746 208.016C762.496 208.763 763.964 209.811 765.149 211.16C766.352 212.509 767.263 214.104 767.883 215.945C768.503 217.768 768.813 219.764 768.813 221.934V222.508C768.813 224.659 768.503 226.655 767.883 228.496C767.263 230.319 766.352 231.914 765.149 233.281C763.964 234.63 762.505 235.678 760.774 236.426C759.042 237.173 757.055 237.547 754.813 237.547C752.57 237.547 750.574 237.173 748.824 236.426C747.093 235.678 745.625 234.63 744.422 233.281C743.237 231.914 742.335 230.319 741.715 228.496C741.095 226.655 740.785 224.659 740.785 222.508ZM748.66 221.934V222.508C748.66 223.747 748.77 224.905 748.988 225.98C749.207 227.056 749.554 228.004 750.028 228.824C750.52 229.626 751.158 230.255 751.942 230.711C752.725 231.167 753.682 231.395 754.813 231.395C755.906 231.395 756.845 231.167 757.629 230.711C758.413 230.255 759.042 229.626 759.516 228.824C759.99 228.004 760.336 227.056 760.555 225.98C760.792 224.905 760.91 223.747 760.91 222.508V221.934C760.91 220.73 760.792 219.6 760.555 218.543C760.336 217.467 759.981 216.52 759.488 215.699C759.015 214.861 758.386 214.204 757.602 213.73C756.818 213.257 755.87 213.02 754.758 213.02C753.646 213.02 752.698 213.257 751.914 213.73C751.149 214.204 750.52 214.861 750.028 215.699C749.554 216.52 749.207 217.467 748.988 218.543C748.77 219.6 748.66 220.73 748.66 221.934ZM782.483 213.73V237H774.608V207.414H781.991L782.483 213.73ZM781.335 221.168H779.202C779.202 218.98 779.485 217.012 780.05 215.262C780.615 213.493 781.408 211.99 782.429 210.75C783.45 209.492 784.662 208.535 786.065 207.879C787.487 207.204 789.073 206.867 790.823 206.867C792.209 206.867 793.476 207.068 794.624 207.469C795.773 207.87 796.757 208.508 797.577 209.383C798.416 210.258 799.054 211.415 799.491 212.855C799.947 214.296 800.175 216.055 800.175 218.133V237H792.245V218.105C792.245 216.793 792.063 215.772 791.698 215.043C791.334 214.314 790.796 213.803 790.085 213.512C789.392 213.202 788.536 213.047 787.515 213.047C786.457 213.047 785.537 213.257 784.753 213.676C783.987 214.095 783.349 214.678 782.839 215.426C782.347 216.155 781.973 217.012 781.718 217.996C781.463 218.98 781.335 220.038 781.335 221.168ZM823.279 228.824C823.279 228.259 823.115 227.749 822.787 227.293C822.459 226.837 821.848 226.418 820.955 226.035C820.08 225.634 818.813 225.27 817.154 224.941C815.659 224.613 814.265 224.203 812.971 223.711C811.695 223.201 810.583 222.59 809.635 221.879C808.705 221.168 807.976 220.329 807.447 219.363C806.919 218.379 806.654 217.258 806.654 216C806.654 214.76 806.919 213.594 807.447 212.5C807.994 211.406 808.769 210.44 809.771 209.602C810.792 208.745 812.032 208.079 813.49 207.605C814.967 207.113 816.626 206.867 818.467 206.867C821.037 206.867 823.243 207.277 825.084 208.098C826.943 208.918 828.365 210.048 829.35 211.488C830.352 212.91 830.853 214.533 830.853 216.355H822.978C822.978 215.59 822.814 214.906 822.486 214.305C822.176 213.685 821.684 213.202 821.01 212.855C820.353 212.491 819.497 212.309 818.439 212.309C817.564 212.309 816.808 212.464 816.17 212.773C815.532 213.065 815.04 213.466 814.693 213.977C814.365 214.469 814.201 215.016 814.201 215.617C814.201 216.073 814.292 216.483 814.475 216.848C814.675 217.194 814.994 217.513 815.432 217.805C815.869 218.096 816.434 218.37 817.127 218.625C817.838 218.862 818.713 219.081 819.752 219.281C821.885 219.719 823.79 220.293 825.467 221.004C827.144 221.697 828.475 222.645 829.459 223.848C830.443 225.033 830.935 226.591 830.935 228.523C830.935 229.836 830.644 231.039 830.06 232.133C829.477 233.227 828.639 234.184 827.545 235.004C826.451 235.806 825.139 236.435 823.607 236.891C822.094 237.328 820.39 237.547 818.494 237.547C815.741 237.547 813.408 237.055 811.494 236.07C809.598 235.086 808.158 233.837 807.174 232.324C806.208 230.793 805.725 229.225 805.725 227.621H813.189C813.226 228.697 813.499 229.562 814.01 230.219C814.538 230.875 815.204 231.349 816.006 231.641C816.826 231.932 817.71 232.078 818.658 232.078C819.679 232.078 820.527 231.941 821.201 231.668C821.876 231.376 822.386 230.993 822.732 230.52C823.097 230.027 823.279 229.462 823.279 228.824ZM366.958 297H359.028V264.789C359.028 262.547 359.466 260.66 360.341 259.129C361.234 257.579 362.483 256.413 364.087 255.629C365.709 254.827 367.632 254.426 369.856 254.426C370.586 254.426 371.287 254.48 371.962 254.59C372.636 254.681 373.293 254.799 373.931 254.945L373.849 260.879C373.502 260.788 373.138 260.724 372.755 260.688C372.372 260.651 371.925 260.633 371.415 260.633C370.467 260.633 369.656 260.797 368.981 261.125C368.325 261.435 367.824 261.9 367.477 262.52C367.131 263.139 366.958 263.896 366.958 264.789V297ZM372.864 267.414V272.992H354.626V267.414H372.864ZM376.855 282.508V281.934C376.855 279.764 377.165 277.768 377.785 275.945C378.405 274.104 379.307 272.509 380.492 271.16C381.677 269.811 383.135 268.763 384.867 268.016C386.599 267.25 388.586 266.867 390.828 266.867C393.07 266.867 395.066 267.25 396.816 268.016C398.566 268.763 400.034 269.811 401.219 271.16C402.422 272.509 403.333 274.104 403.953 275.945C404.573 277.768 404.883 279.764 404.883 281.934V282.508C404.883 284.659 404.573 286.655 403.953 288.496C403.333 290.319 402.422 291.914 401.219 293.281C400.034 294.63 398.575 295.678 396.844 296.426C395.112 297.173 393.125 297.547 390.883 297.547C388.64 297.547 386.644 297.173 384.894 296.426C383.163 295.678 381.695 294.63 380.492 293.281C379.307 291.914 378.405 290.319 377.785 288.496C377.165 286.655 376.855 284.659 376.855 282.508ZM384.73 281.934V282.508C384.73 283.747 384.84 284.905 385.058 285.98C385.277 287.056 385.624 288.004 386.097 288.824C386.59 289.626 387.228 290.255 388.012 290.711C388.795 291.167 389.752 291.395 390.883 291.395C391.976 291.395 392.915 291.167 393.699 290.711C394.483 290.255 395.112 289.626 395.586 288.824C396.06 288.004 396.406 287.056 396.625 285.98C396.862 284.905 396.98 283.747 396.98 282.508V281.934C396.98 280.73 396.862 279.6 396.625 278.543C396.406 277.467 396.051 276.52 395.558 275.699C395.084 274.861 394.456 274.204 393.672 273.73C392.888 273.257 391.94 273.02 390.828 273.02C389.716 273.02 388.768 273.257 387.984 273.73C387.219 274.204 386.59 274.861 386.097 275.699C385.624 276.52 385.277 277.467 385.058 278.543C384.84 279.6 384.73 280.73 384.73 281.934ZM418.717 273.867V297H410.842V267.414H418.253L418.717 273.867ZM427.632 267.223L427.495 274.523C427.112 274.469 426.647 274.423 426.1 274.387C425.572 274.332 425.089 274.305 424.651 274.305C423.539 274.305 422.573 274.451 421.753 274.742C420.951 275.016 420.276 275.426 419.729 275.973C419.201 276.52 418.8 277.185 418.526 277.969C418.271 278.753 418.125 279.646 418.089 280.648L416.503 280.156C416.503 278.242 416.694 276.483 417.077 274.879C417.46 273.257 418.016 271.844 418.745 270.641C419.492 269.438 420.404 268.508 421.479 267.852C422.555 267.195 423.785 266.867 425.171 266.867C425.608 266.867 426.055 266.904 426.51 266.977C426.966 267.031 427.34 267.113 427.632 267.223ZM453.497 257.188L461.809 275.344L470.122 257.188H479.063L465.965 282.508V297H457.653V282.508L444.528 257.188H453.497ZM480.265 282.508V281.934C480.265 279.764 480.575 277.768 481.195 275.945C481.814 274.104 482.717 272.509 483.902 271.16C485.087 269.811 486.545 268.763 488.277 268.016C490.008 267.25 491.995 266.867 494.238 266.867C496.48 266.867 498.476 267.25 500.226 268.016C501.976 268.763 503.443 269.811 504.628 271.16C505.831 272.509 506.743 274.104 507.363 275.945C507.982 277.768 508.292 279.764 508.292 281.934V282.508C508.292 284.659 507.982 286.655 507.363 288.496C506.743 290.319 505.831 291.914 504.628 293.281C503.443 294.63 501.985 295.678 500.253 296.426C498.521 297.173 496.535 297.547 494.292 297.547C492.05 297.547 490.054 297.173 488.304 296.426C486.572 295.678 485.105 294.63 483.902 293.281C482.717 291.914 481.814 290.319 481.195 288.496C480.575 286.655 480.265 284.659 480.265 282.508ZM488.14 281.934V282.508C488.14 283.747 488.249 284.905 488.468 285.98C488.687 287.056 489.033 288.004 489.507 288.824C489.999 289.626 490.637 290.255 491.421 290.711C492.205 291.167 493.162 291.395 494.292 291.395C495.386 291.395 496.325 291.167 497.109 290.711C497.893 290.255 498.521 289.626 498.995 288.824C499.469 288.004 499.816 287.056 500.035 285.98C500.271 284.905 500.39 283.747 500.39 282.508V281.934C500.39 280.73 500.271 279.6 500.035 278.543C499.816 277.467 499.46 276.52 498.968 275.699C498.494 274.861 497.865 274.204 497.081 273.73C496.298 273.257 495.35 273.02 494.238 273.02C493.126 273.02 492.178 273.257 491.394 273.73C490.628 274.204 489.999 274.861 489.507 275.699C489.033 276.52 488.687 277.467 488.468 278.543C488.249 279.6 488.14 280.73 488.14 281.934ZM531.752 289.918V267.414H539.627V297H532.217L531.752 289.918ZM532.627 283.848L534.951 283.793C534.951 285.762 534.724 287.594 534.268 289.289C533.812 290.966 533.128 292.424 532.217 293.664C531.306 294.885 530.157 295.842 528.772 296.535C527.386 297.21 525.755 297.547 523.877 297.547C522.437 297.547 521.106 297.346 519.885 296.945C518.682 296.526 517.643 295.879 516.768 295.004C515.911 294.111 515.237 292.971 514.744 291.586C514.27 290.182 514.033 288.496 514.033 286.527V267.414H521.908V286.582C521.908 287.457 522.009 288.195 522.209 288.797C522.428 289.398 522.729 289.891 523.112 290.273C523.494 290.656 523.941 290.93 524.451 291.094C524.98 291.258 525.563 291.34 526.201 291.34C527.824 291.34 529.1 291.012 530.03 290.355C530.977 289.699 531.643 288.806 532.026 287.676C532.427 286.527 532.627 285.251 532.627 283.848ZM554.638 273.867V297H546.763V267.414H554.173L554.638 273.867ZM563.552 267.223L563.415 274.523C563.032 274.469 562.567 274.423 562.021 274.387C561.492 274.332 561.009 274.305 560.571 274.305C559.459 274.305 558.493 274.451 557.673 274.742C556.871 275.016 556.196 275.426 555.65 275.973C555.121 276.52 554.72 277.185 554.446 277.969C554.191 278.753 554.045 279.646 554.009 280.648L552.423 280.156C552.423 278.242 552.614 276.483 552.997 274.879C553.38 273.257 553.936 271.844 554.665 270.641C555.413 269.438 556.324 268.508 557.4 267.852C558.475 267.195 559.706 266.867 561.091 266.867C561.528 266.867 561.975 266.904 562.431 266.977C562.887 267.031 563.26 267.113 563.552 267.223ZM599.534 279.527H589.307L589.253 273.895H597.839C599.352 273.895 600.591 273.703 601.557 273.32C602.524 272.919 603.244 272.345 603.718 271.598C604.21 270.832 604.456 269.902 604.456 268.809C604.456 267.569 604.219 266.566 603.745 265.801C603.289 265.035 602.569 264.479 601.585 264.133C600.619 263.786 599.37 263.613 597.839 263.613H592.151V297H583.948V257.188H597.839C600.154 257.188 602.223 257.406 604.046 257.844C605.887 258.281 607.446 258.947 608.722 259.84C609.998 260.733 610.973 261.863 611.647 263.23C612.322 264.579 612.659 266.184 612.659 268.043C612.659 269.684 612.285 271.197 611.538 272.582C610.809 273.967 609.651 275.098 608.065 275.973C606.498 276.848 604.447 277.331 601.913 277.422L599.534 279.527ZM599.179 297H587.065L590.265 290.602H599.179C600.619 290.602 601.794 290.374 602.706 289.918C603.617 289.444 604.292 288.806 604.729 288.004C605.167 287.202 605.386 286.281 605.386 285.242C605.386 284.076 605.185 283.064 604.784 282.207C604.401 281.35 603.781 280.694 602.925 280.238C602.068 279.764 600.938 279.527 599.534 279.527H591.632L591.686 273.895H601.53L603.417 276.109C605.841 276.073 607.792 276.501 609.268 277.395C610.763 278.27 611.848 279.409 612.522 280.812C613.215 282.216 613.561 283.72 613.561 285.324C613.561 287.876 613.005 290.027 611.893 291.777C610.781 293.509 609.15 294.812 606.999 295.688C604.866 296.562 602.259 297 599.179 297ZM637.842 289.918V267.414H645.717V297H638.306L637.842 289.918ZM638.717 283.848L641.041 283.793C641.041 285.762 640.813 287.594 640.357 289.289C639.901 290.966 639.218 292.424 638.306 293.664C637.395 294.885 636.247 295.842 634.861 296.535C633.476 297.21 631.844 297.547 629.967 297.547C628.526 297.547 627.196 297.346 625.974 296.945C624.771 296.526 623.732 295.879 622.857 295.004C622 294.111 621.326 292.971 620.834 291.586C620.36 290.182 620.123 288.496 620.123 286.527V267.414H627.998V286.582C627.998 287.457 628.098 288.195 628.299 288.797C628.517 289.398 628.818 289.891 629.201 290.273C629.584 290.656 630.03 290.93 630.541 291.094C631.069 291.258 631.653 291.34 632.291 291.34C633.913 291.34 635.189 291.012 636.119 290.355C637.067 289.699 637.732 288.806 638.115 287.676C638.516 286.527 638.717 285.251 638.717 283.848ZM668.848 288.824C668.848 288.259 668.684 287.749 668.356 287.293C668.028 286.837 667.417 286.418 666.524 286.035C665.649 285.634 664.382 285.27 662.723 284.941C661.228 284.613 659.834 284.203 658.54 283.711C657.264 283.201 656.152 282.59 655.204 281.879C654.274 281.168 653.545 280.329 653.016 279.363C652.488 278.379 652.223 277.258 652.223 276C652.223 274.76 652.488 273.594 653.016 272.5C653.563 271.406 654.338 270.44 655.34 269.602C656.361 268.745 657.601 268.079 659.059 267.605C660.536 267.113 662.195 266.867 664.036 266.867C666.606 266.867 668.812 267.277 670.653 268.098C672.512 268.918 673.934 270.048 674.919 271.488C675.921 272.91 676.422 274.533 676.422 276.355H668.547C668.547 275.59 668.383 274.906 668.055 274.305C667.745 273.685 667.253 273.202 666.579 272.855C665.922 272.491 665.066 272.309 664.008 272.309C663.133 272.309 662.377 272.464 661.739 272.773C661.101 273.065 660.609 273.466 660.262 273.977C659.934 274.469 659.77 275.016 659.77 275.617C659.77 276.073 659.861 276.483 660.044 276.848C660.244 277.194 660.563 277.513 661.001 277.805C661.438 278.096 662.003 278.37 662.696 278.625C663.407 278.862 664.282 279.081 665.321 279.281C667.454 279.719 669.359 280.293 671.036 281.004C672.713 281.697 674.044 282.645 675.028 283.848C676.012 285.033 676.505 286.591 676.505 288.523C676.505 289.836 676.213 291.039 675.63 292.133C675.046 293.227 674.208 294.184 673.114 295.004C672.02 295.806 670.708 296.435 669.176 296.891C667.663 297.328 665.959 297.547 664.063 297.547C661.311 297.547 658.977 297.055 657.063 296.07C655.167 295.086 653.727 293.837 652.743 292.324C651.777 290.793 651.294 289.225 651.294 287.621H658.758C658.795 288.697 659.068 289.562 659.579 290.219C660.107 290.875 660.773 291.349 661.575 291.641C662.395 291.932 663.279 292.078 664.227 292.078C665.248 292.078 666.096 291.941 666.77 291.668C667.445 291.376 667.955 290.993 668.301 290.52C668.666 290.027 668.848 289.462 668.848 288.824ZM691.05 267.414V297H683.148V267.414H691.05ZM682.656 259.703C682.656 258.555 683.057 257.607 683.859 256.859C684.661 256.112 685.736 255.738 687.085 255.738C688.416 255.738 689.483 256.112 690.285 256.859C691.105 257.607 691.515 258.555 691.515 259.703C691.515 260.852 691.105 261.799 690.285 262.547C689.483 263.294 688.416 263.668 687.085 263.668C685.736 263.668 684.661 263.294 683.859 262.547C683.057 261.799 682.656 260.852 682.656 259.703ZM706.389 273.73V297H698.514V267.414H705.897L706.389 273.73ZM705.241 281.168H703.108C703.108 278.98 703.39 277.012 703.955 275.262C704.521 273.493 705.314 271.99 706.334 270.75C707.355 269.492 708.567 268.535 709.971 267.879C711.393 267.204 712.979 266.867 714.729 266.867C716.114 266.867 717.381 267.068 718.53 267.469C719.678 267.87 720.662 268.508 721.483 269.383C722.321 270.258 722.959 271.415 723.397 272.855C723.853 274.296 724.08 276.055 724.08 278.133V297H716.151V278.105C716.151 276.793 715.968 275.772 715.604 275.043C715.239 274.314 714.702 273.803 713.991 273.512C713.298 273.202 712.441 273.047 711.42 273.047C710.363 273.047 709.442 273.257 708.659 273.676C707.893 274.095 707.255 274.678 706.745 275.426C706.252 276.155 705.879 277.012 705.623 277.996C705.368 278.98 705.241 280.038 705.241 281.168ZM744.806 297.547C742.509 297.547 740.449 297.182 738.626 296.453C736.803 295.706 735.254 294.676 733.978 293.363C732.72 292.051 731.754 290.529 731.079 288.797C730.405 287.047 730.068 285.188 730.068 283.219V282.125C730.068 279.883 730.387 277.832 731.025 275.973C731.663 274.113 732.574 272.5 733.759 271.133C734.962 269.766 736.42 268.717 738.134 267.988C739.848 267.241 741.78 266.867 743.931 266.867C746.027 266.867 747.887 267.214 749.509 267.906C751.131 268.599 752.49 269.583 753.583 270.859C754.695 272.135 755.534 273.667 756.099 275.453C756.664 277.221 756.947 279.19 756.947 281.359V284.641H733.431V279.391H749.208V278.789C749.208 277.695 749.008 276.72 748.607 275.863C748.224 274.988 747.641 274.296 746.857 273.785C746.073 273.275 745.07 273.02 743.849 273.02C742.81 273.02 741.917 273.247 741.169 273.703C740.422 274.159 739.811 274.797 739.337 275.617C738.881 276.438 738.535 277.404 738.298 278.516C738.079 279.609 737.97 280.812 737.97 282.125V283.219C737.97 284.404 738.134 285.497 738.462 286.5C738.809 287.503 739.292 288.368 739.911 289.098C740.549 289.827 741.315 290.392 742.208 290.793C743.12 291.194 744.15 291.395 745.298 291.395C746.72 291.395 748.042 291.121 749.263 290.574C750.503 290.009 751.569 289.161 752.462 288.031L756.29 292.188C755.67 293.081 754.823 293.938 753.747 294.758C752.69 295.578 751.414 296.253 749.919 296.781C748.424 297.292 746.72 297.547 744.806 297.547ZM778.547 288.824C778.547 288.259 778.383 287.749 778.055 287.293C777.727 286.837 777.116 286.418 776.223 286.035C775.348 285.634 774.081 285.27 772.422 284.941C770.927 284.613 769.533 284.203 768.238 283.711C766.962 283.201 765.85 282.59 764.902 281.879C763.973 281.168 763.244 280.329 762.715 279.363C762.186 278.379 761.922 277.258 761.922 276C761.922 274.76 762.186 273.594 762.715 272.5C763.262 271.406 764.037 270.44 765.039 269.602C766.06 268.745 767.3 268.079 768.758 267.605C770.234 267.113 771.893 266.867 773.734 266.867C776.305 266.867 778.511 267.277 780.352 268.098C782.211 268.918 783.633 270.048 784.617 271.488C785.62 272.91 786.121 274.533 786.121 276.355H778.246C778.246 275.59 778.082 274.906 777.754 274.305C777.444 273.685 776.952 273.202 776.277 272.855C775.621 272.491 774.764 272.309 773.707 272.309C772.832 272.309 772.076 272.464 771.438 272.773C770.8 273.065 770.307 273.466 769.961 273.977C769.633 274.469 769.469 275.016 769.469 275.617C769.469 276.073 769.56 276.483 769.742 276.848C769.943 277.194 770.262 277.513 770.699 277.805C771.137 278.096 771.702 278.37 772.395 278.625C773.106 278.862 773.981 279.081 775.02 279.281C777.152 279.719 779.057 280.293 780.734 281.004C782.412 281.697 783.742 282.645 784.727 283.848C785.711 285.033 786.203 286.591 786.203 288.523C786.203 289.836 785.912 291.039 785.328 292.133C784.745 293.227 783.906 294.184 782.813 295.004C781.719 295.806 780.406 296.435 778.875 296.891C777.362 297.328 775.658 297.547 773.762 297.547C771.009 297.547 768.676 297.055 766.762 296.07C764.866 295.086 763.426 293.837 762.442 292.324C761.475 290.793 760.992 289.225 760.992 287.621H768.457C768.494 288.697 768.767 289.562 769.277 290.219C769.806 290.875 770.471 291.349 771.274 291.641C772.094 291.932 772.978 292.078 773.926 292.078C774.947 292.078 775.794 291.941 776.469 291.668C777.143 291.376 777.654 290.993 778 290.52C778.365 290.027 778.547 289.462 778.547 288.824ZM808.433 288.824C808.433 288.259 808.269 287.749 807.94 287.293C807.612 286.837 807.002 286.418 806.108 286.035C805.233 285.634 803.967 285.27 802.308 284.941C800.813 284.613 799.418 284.203 798.124 283.711C796.848 283.201 795.736 282.59 794.788 281.879C793.858 281.168 793.129 280.329 792.601 279.363C792.072 278.379 791.808 277.258 791.808 276C791.808 274.76 792.072 273.594 792.601 272.5C793.148 271.406 793.922 270.44 794.925 269.602C795.946 268.745 797.185 268.079 798.644 267.605C800.12 267.113 801.779 266.867 803.62 266.867C806.19 266.867 808.396 267.277 810.237 268.098C812.097 268.918 813.519 270.048 814.503 271.488C815.506 272.91 816.007 274.533 816.007 276.355H808.132C808.132 275.59 807.968 274.906 807.64 274.305C807.33 273.685 806.838 273.202 806.163 272.855C805.507 272.491 804.65 272.309 803.593 272.309C802.718 272.309 801.961 272.464 801.323 272.773C800.685 273.065 800.193 273.466 799.847 273.977C799.519 274.469 799.355 275.016 799.355 275.617C799.355 276.073 799.446 276.483 799.628 276.848C799.829 277.194 800.148 277.513 800.585 277.805C801.023 278.096 801.588 278.37 802.28 278.625C802.991 278.862 803.866 279.081 804.905 279.281C807.038 279.719 808.943 280.293 810.62 281.004C812.297 281.697 813.628 282.645 814.612 283.848C815.597 285.033 816.089 286.591 816.089 288.523C816.089 289.836 815.797 291.039 815.214 292.133C814.631 293.227 813.792 294.184 812.698 295.004C811.605 295.806 810.292 296.435 808.761 296.891C807.248 297.328 805.543 297.547 803.648 297.547C800.895 297.547 798.562 297.055 796.648 296.07C794.752 295.086 793.312 293.837 792.327 292.324C791.361 290.793 790.878 289.225 790.878 287.621H798.343C798.379 288.697 798.653 289.562 799.163 290.219C799.692 290.875 800.357 291.349 801.159 291.641C801.98 291.932 802.864 292.078 803.812 292.078C804.832 292.078 805.68 291.941 806.355 291.668C807.029 291.376 807.539 290.993 807.886 290.52C808.25 290.027 808.433 289.462 808.433 288.824Z" fill="white"/>
<defs>
<filter id="filter0_d_296605_13" x="498" y="356" width="177" height="64" filterUnits="userSpaceOnUse" color-interpolation-filters="sRGB">
<feFlood flood-opacity="0" result="BackgroundImageFix"/>
<feColorMatrix in="SourceAlpha" type="matrix" values="0 0 0 0 0 0 0 0 0 0 0 0 0 0 0 0 0 0 127 0" result="hardAlpha"/>
<feOffset dy="4"/>
<feGaussianBlur stdDeviation="2"/>
<feComposite in2="hardAlpha" operator="out"/>
<feColorMatrix type="matrix" values="0 0 0 0 0 0 0 0 0 0 0 0 0 0 0 0 0 0 0.15 0"/>
<feBlend mode="normal" in2="BackgroundImageFix" result="effect1_dropShadow_296605_13"/>
<feBlend mode="normal" in="SourceGraphic" in2="effect1_dropShadow_296605_13" result="shape"/>
</filter>
</defs>
</svg>
