<svg width="1440" height="72" viewBox="0 0 1440 72" fill="none" xmlns="http://www.w3.org/2000/svg">
<mask id="path-1-inside-1_297080_7250" fill="white">
<path d="M0 0H1440V72H0V0Z"/>
</mask>
<path d="M0 0H1440V72H0V0Z" fill="white"/>
<path d="M1440 71H0V73H1440V71Z" fill="#E7E9FC" mask="url(#path-1-inside-1_297080_7250)"/>
<path d="M1141.41 34.8984V36.2578H1133.61V34.8984H1141.41ZM1138.23 31.5781V39.8594H1136.79V31.5781H1138.23ZM1148.09 29.5625V41H1146.65V31.3672L1143.73 32.4297V31.125L1147.87 29.5625H1148.09ZM1157.41 29.5625V41H1155.97V31.3672L1153.05 32.4297V31.125L1157.19 29.5625H1157.41ZM1166.37 36.4531V36.375C1166.37 35.2396 1166.5 34.2135 1166.76 33.2969C1167.01 32.375 1167.34 31.5677 1167.73 30.875C1168.13 30.1823 1168.55 29.6094 1168.98 29.1562C1169.42 28.6979 1169.82 28.3672 1170.19 28.1641L1170.5 29.1172C1170.19 29.3516 1169.88 29.6745 1169.56 30.0859C1169.25 30.4974 1168.96 31.0026 1168.69 31.6016C1168.43 32.2005 1168.22 32.8958 1168.06 33.6875C1167.9 34.4792 1167.82 35.3698 1167.82 36.3594V36.4688C1167.82 37.4583 1167.9 38.3516 1168.06 39.1484C1168.22 39.9401 1168.43 40.638 1168.69 41.2422C1168.96 41.8464 1169.25 42.3594 1169.56 42.7812C1169.88 43.2083 1170.19 43.5469 1170.5 43.7969L1170.19 44.6719C1169.82 44.4688 1169.42 44.138 1168.98 43.6797C1168.55 43.2266 1168.13 42.6536 1167.73 41.9609C1167.34 41.2734 1167.01 40.4688 1166.76 39.5469C1166.5 38.625 1166.37 37.5938 1166.37 36.4531ZM1179.22 34.4062V36.1406C1179.22 37.0729 1179.13 37.8594 1178.97 38.5C1178.8 39.1406 1178.56 39.6562 1178.25 40.0469C1177.94 40.4375 1177.56 40.7214 1177.12 40.8984C1176.68 41.0703 1176.18 41.1562 1175.63 41.1562C1175.19 41.1562 1174.79 41.1016 1174.42 40.9922C1174.05 40.8828 1173.72 40.7083 1173.42 40.4688C1173.13 40.224 1172.88 39.9062 1172.67 39.5156C1172.46 39.125 1172.3 38.651 1172.19 38.0938C1172.08 37.5365 1172.03 36.8854 1172.03 36.1406V34.4062C1172.03 33.474 1172.11 32.6927 1172.28 32.0625C1172.45 31.4323 1172.69 30.9271 1173.01 30.5469C1173.32 30.1615 1173.69 29.8854 1174.13 29.7188C1174.57 29.5521 1175.07 29.4688 1175.62 29.4688C1176.06 29.4688 1176.46 29.5234 1176.83 29.6328C1177.21 29.737 1177.54 29.9062 1177.83 30.1406C1178.13 30.3698 1178.37 30.6771 1178.58 31.0625C1178.78 31.4427 1178.94 31.9089 1179.05 32.4609C1179.16 33.013 1179.22 33.6615 1179.22 34.4062ZM1177.76 36.375V34.1641C1177.76 33.6536 1177.73 33.2057 1177.67 32.8203C1177.61 32.4297 1177.53 32.0964 1177.41 31.8203C1177.3 31.5443 1177.15 31.3203 1176.97 31.1484C1176.8 30.9766 1176.6 30.8516 1176.37 30.7734C1176.15 30.6901 1175.9 30.6484 1175.62 30.6484C1175.27 30.6484 1174.97 30.7135 1174.7 30.8438C1174.44 30.9688 1174.21 31.1693 1174.03 31.4453C1173.85 31.7214 1173.72 32.0833 1173.62 32.5312C1173.53 32.9792 1173.48 33.5234 1173.48 34.1641V36.375C1173.48 36.8854 1173.51 37.3359 1173.57 37.7266C1173.63 38.1172 1173.72 38.4557 1173.84 38.7422C1173.96 39.0234 1174.11 39.2552 1174.28 39.4375C1174.45 39.6198 1174.65 39.7552 1174.87 39.8438C1175.1 39.9271 1175.36 39.9688 1175.63 39.9688C1175.99 39.9688 1176.3 39.901 1176.56 39.7656C1176.83 39.6302 1177.05 39.4193 1177.22 39.1328C1177.41 38.8411 1177.54 38.4688 1177.63 38.0156C1177.72 37.5573 1177.76 37.0104 1177.76 36.375ZM1188.54 34.4062V36.1406C1188.54 37.0729 1188.45 37.8594 1188.29 38.5C1188.12 39.1406 1187.88 39.6562 1187.57 40.0469C1187.26 40.4375 1186.88 40.7214 1186.44 40.8984C1186 41.0703 1185.5 41.1562 1184.95 41.1562C1184.51 41.1562 1184.11 41.1016 1183.74 40.9922C1183.37 40.8828 1183.04 40.7083 1182.74 40.4688C1182.45 40.224 1182.2 39.9062 1181.99 39.5156C1181.78 39.125 1181.62 38.651 1181.51 38.0938C1181.4 37.5365 1181.35 36.8854 1181.35 36.1406V34.4062C1181.35 33.474 1181.43 32.6927 1181.6 32.0625C1181.77 31.4323 1182.01 30.9271 1182.33 30.5469C1182.64 30.1615 1183.01 29.8854 1183.45 29.7188C1183.89 29.5521 1184.39 29.4688 1184.94 29.4688C1185.38 29.4688 1185.78 29.5234 1186.15 29.6328C1186.53 29.737 1186.86 29.9062 1187.15 30.1406C1187.45 30.3698 1187.69 30.6771 1187.9 31.0625C1188.1 31.4427 1188.26 31.9089 1188.37 32.4609C1188.48 33.013 1188.54 33.6615 1188.54 34.4062ZM1187.08 36.375V34.1641C1187.08 33.6536 1187.05 33.2057 1186.99 32.8203C1186.93 32.4297 1186.85 32.0964 1186.73 31.8203C1186.62 31.5443 1186.47 31.3203 1186.29 31.1484C1186.12 30.9766 1185.92 30.8516 1185.69 30.7734C1185.47 30.6901 1185.22 30.6484 1184.94 30.6484C1184.59 30.6484 1184.29 30.7135 1184.02 30.8438C1183.76 30.9688 1183.53 31.1693 1183.35 31.4453C1183.17 31.7214 1183.04 32.0833 1182.94 32.5312C1182.85 32.9792 1182.8 33.5234 1182.8 34.1641V36.375C1182.8 36.8854 1182.83 37.3359 1182.89 37.7266C1182.95 38.1172 1183.04 38.4557 1183.16 38.7422C1183.28 39.0234 1183.43 39.2552 1183.6 39.4375C1183.77 39.6198 1183.97 39.7552 1184.19 39.8438C1184.42 39.9271 1184.68 39.9688 1184.95 39.9688C1185.31 39.9688 1185.62 39.901 1185.88 39.7656C1186.15 39.6302 1186.37 39.4193 1186.54 39.1328C1186.73 38.8411 1186.86 38.4688 1186.95 38.0156C1187.04 37.5573 1187.08 37.0104 1187.08 36.375ZM1197.86 34.4062V36.1406C1197.86 37.0729 1197.77 37.8594 1197.61 38.5C1197.44 39.1406 1197.2 39.6562 1196.89 40.0469C1196.58 40.4375 1196.2 40.7214 1195.76 40.8984C1195.32 41.0703 1194.82 41.1562 1194.27 41.1562C1193.83 41.1562 1193.43 41.1016 1193.06 40.9922C1192.69 40.8828 1192.36 40.7083 1192.06 40.4688C1191.77 40.224 1191.52 39.9062 1191.31 39.5156C1191.1 39.125 1190.94 38.651 1190.83 38.0938C1190.72 37.5365 1190.67 36.8854 1190.67 36.1406V34.4062C1190.67 33.474 1190.75 32.6927 1190.92 32.0625C1191.09 31.4323 1191.33 30.9271 1191.65 30.5469C1191.96 30.1615 1192.33 29.8854 1192.77 29.7188C1193.21 29.5521 1193.71 29.4688 1194.26 29.4688C1194.7 29.4688 1195.1 29.5234 1195.47 29.6328C1195.85 29.737 1196.18 29.9062 1196.47 30.1406C1196.77 30.3698 1197.01 30.6771 1197.22 31.0625C1197.42 31.4427 1197.58 31.9089 1197.69 32.4609C1197.8 33.013 1197.86 33.6615 1197.86 34.4062ZM1196.4 36.375V34.1641C1196.4 33.6536 1196.37 33.2057 1196.31 32.8203C1196.25 32.4297 1196.17 32.0964 1196.05 31.8203C1195.94 31.5443 1195.79 31.3203 1195.62 31.1484C1195.44 30.9766 1195.24 30.8516 1195.01 30.7734C1194.79 30.6901 1194.54 30.6484 1194.26 30.6484C1193.91 30.6484 1193.61 30.7135 1193.34 30.8438C1193.08 30.9688 1192.85 31.1693 1192.67 31.4453C1192.49 31.7214 1192.36 32.0833 1192.26 32.5312C1192.17 32.9792 1192.12 33.5234 1192.12 34.1641V36.375C1192.12 36.8854 1192.15 37.3359 1192.21 37.7266C1192.27 38.1172 1192.36 38.4557 1192.48 38.7422C1192.6 39.0234 1192.75 39.2552 1192.92 39.4375C1193.09 39.6198 1193.29 39.7552 1193.51 39.8438C1193.74 39.9271 1194 39.9688 1194.27 39.9688C1194.63 39.9688 1194.94 39.901 1195.2 39.7656C1195.47 39.6302 1195.69 39.4193 1195.87 39.1328C1196.05 38.8411 1196.18 38.4688 1196.27 38.0156C1196.36 37.5573 1196.4 37.0104 1196.4 36.375ZM1203.52 36.375V36.4531C1203.52 37.5938 1203.39 38.625 1203.14 39.5469C1202.88 40.4688 1202.56 41.2734 1202.16 41.9609C1201.77 42.6536 1201.35 43.2266 1200.91 43.6797C1200.47 44.138 1200.07 44.4688 1199.7 44.6719L1199.4 43.7969C1199.7 43.5625 1200.01 43.2344 1200.33 42.8125C1200.64 42.3958 1200.93 41.8802 1201.19 41.2656C1201.46 40.6562 1201.67 39.9531 1201.83 39.1562C1201.99 38.3542 1202.08 37.4583 1202.08 36.4688V36.3594C1202.08 35.3698 1201.99 34.4766 1201.82 33.6797C1201.65 32.8776 1201.42 32.1719 1201.15 31.5625C1200.88 30.9531 1200.58 30.4401 1200.27 30.0234C1199.96 29.6016 1199.67 29.276 1199.4 29.0469L1199.7 28.1641C1200.07 28.3672 1200.47 28.6979 1200.91 29.1562C1201.35 29.6094 1201.77 30.1823 1202.16 30.875C1202.56 31.5677 1202.88 32.375 1203.14 33.2969C1203.39 34.2135 1203.52 35.2396 1203.52 36.375ZM1214.97 29.5625V41H1213.53V31.3672L1210.61 32.4297V31.125L1214.75 29.5625H1214.97ZM1224.29 29.5625V41H1222.85V31.3672L1219.93 32.4297V31.125L1224.07 29.5625H1224.29ZM1233.61 29.5625V41H1232.17V31.3672L1229.25 32.4297V31.125L1233.39 29.5625H1233.61ZM1241.35 35.5703V36.7578H1237.54V35.5703H1241.35ZM1247.68 29.5625V41H1246.23V31.3672L1243.32 32.4297V31.125L1247.45 29.5625H1247.68ZM1257 29.5625V41H1255.55V31.3672L1252.64 32.4297V31.125L1256.77 29.5625H1257ZM1264.73 35.5703V36.7578H1260.92V35.5703H1264.73ZM1271.06 29.5625V41H1269.61V31.3672L1266.7 32.4297V31.125L1270.83 29.5625H1271.06ZM1280.38 29.5625V41H1278.93V31.3672L1276.02 32.4297V31.125L1280.15 29.5625H1280.38Z" fill="#434455"/>
<path d="M942.672 32.5469V41H941.219V32.5469H942.672ZM941.109 30.3047C941.109 30.0703 941.18 29.8724 941.32 29.7109C941.466 29.5495 941.68 29.4688 941.961 29.4688C942.237 29.4688 942.448 29.5495 942.594 29.7109C942.745 29.8724 942.82 30.0703 942.82 30.3047C942.82 30.5286 942.745 30.7214 942.594 30.8828C942.448 31.0391 942.237 31.1172 941.961 31.1172C941.68 31.1172 941.466 31.0391 941.32 30.8828C941.18 30.7214 941.109 30.5286 941.109 30.3047ZM946.758 34.3516V41H945.312V32.5469H946.679L946.758 34.3516ZM946.414 36.4531L945.812 36.4297C945.817 35.8516 945.903 35.3177 946.07 34.8281C946.237 34.3333 946.471 33.9036 946.773 33.5391C947.075 33.1745 947.435 32.8932 947.851 32.6953C948.273 32.4922 948.739 32.3906 949.25 32.3906C949.666 32.3906 950.041 32.4479 950.375 32.5625C950.708 32.6719 950.992 32.849 951.226 33.0938C951.466 33.3385 951.648 33.6562 951.773 34.0469C951.898 34.4323 951.961 34.9036 951.961 35.4609V41H950.508V35.4453C950.508 35.0026 950.442 34.6484 950.312 34.3828C950.182 34.112 949.992 33.9167 949.742 33.7969C949.492 33.6719 949.185 33.6094 948.82 33.6094C948.461 33.6094 948.133 33.6849 947.836 33.8359C947.544 33.987 947.291 34.1953 947.078 34.4609C946.869 34.7266 946.705 35.0312 946.586 35.375C946.471 35.7135 946.414 36.0729 946.414 36.4531ZM956.632 41H955.187V31.6562C955.187 31.0469 955.296 30.5339 955.515 30.1172C955.739 29.6953 956.059 29.3776 956.476 29.1641C956.893 28.9453 957.387 28.8359 957.96 28.8359C958.127 28.8359 958.294 28.8464 958.46 28.8672C958.632 28.888 958.799 28.9193 958.96 28.9609L958.882 30.1406C958.773 30.1146 958.648 30.0964 958.507 30.0859C958.372 30.0755 958.236 30.0703 958.101 30.0703C957.794 30.0703 957.528 30.1328 957.304 30.2578C957.085 30.3776 956.919 30.5547 956.804 30.7891C956.689 31.0234 956.632 31.3125 956.632 31.6562V41ZM958.429 32.5469V33.6562H953.851V32.5469H958.429ZM959.976 36.8672V36.6875C959.976 36.0781 960.064 35.513 960.241 34.9922C960.418 34.4661 960.674 34.0104 961.007 33.625C961.34 33.2344 961.744 32.9323 962.218 32.7188C962.692 32.5 963.223 32.3906 963.812 32.3906C964.405 32.3906 964.939 32.5 965.413 32.7188C965.892 32.9323 966.299 33.2344 966.632 33.625C966.97 34.0104 967.228 34.4661 967.405 34.9922C967.582 35.513 967.671 36.0781 967.671 36.6875V36.8672C967.671 37.4766 967.582 38.0417 967.405 38.5625C967.228 39.0833 966.97 39.5391 966.632 39.9297C966.299 40.3151 965.895 40.6172 965.421 40.8359C964.952 41.0495 964.421 41.1562 963.827 41.1562C963.233 41.1562 962.7 41.0495 962.226 40.8359C961.752 40.6172 961.345 40.3151 961.007 39.9297C960.674 39.5391 960.418 39.0833 960.241 38.5625C960.064 38.0417 959.976 37.4766 959.976 36.8672ZM961.421 36.6875V36.8672C961.421 37.2891 961.47 37.6875 961.569 38.0625C961.668 38.4323 961.817 38.7604 962.015 39.0469C962.218 39.3333 962.47 39.5599 962.772 39.7266C963.075 39.888 963.426 39.9688 963.827 39.9688C964.223 39.9688 964.569 39.888 964.866 39.7266C965.168 39.5599 965.418 39.3333 965.616 39.0469C965.814 38.7604 965.963 38.4323 966.062 38.0625C966.166 37.6875 966.218 37.2891 966.218 36.8672V36.6875C966.218 36.2708 966.166 35.8776 966.062 35.5078C965.963 35.1328 965.812 34.8021 965.608 34.5156C965.411 34.224 965.161 33.9948 964.858 33.8281C964.562 33.6615 964.213 33.5781 963.812 33.5781C963.416 33.5781 963.067 33.6615 962.765 33.8281C962.468 33.9948 962.218 34.224 962.015 34.5156C961.817 34.8021 961.668 35.1328 961.569 35.5078C961.47 35.8776 961.421 36.2708 961.421 36.6875ZM982.264 37.0703C982.244 37.5495 982.171 38.0312 982.046 38.5156C981.921 38.9948 981.733 39.4349 981.483 39.8359C981.233 40.237 980.908 40.5599 980.507 40.8047C980.111 41.0443 979.632 41.1641 979.069 41.1641C978.71 41.1641 978.395 41.1016 978.124 40.9766C977.858 40.8464 977.639 40.6615 977.468 40.4219C977.301 40.1823 977.184 39.8932 977.116 39.5547C977.053 39.2161 977.043 38.8385 977.085 38.4219L977.483 34.0938H978.632L978.233 38.4219C978.202 38.8021 978.21 39.112 978.257 39.3516C978.309 39.5911 978.387 39.776 978.491 39.9062C978.595 40.0312 978.712 40.1172 978.843 40.1641C978.978 40.2109 979.108 40.2344 979.233 40.2344C979.546 40.2344 979.824 40.1536 980.069 39.9922C980.314 39.8255 980.52 39.599 980.686 39.3125C980.858 39.0208 980.991 38.6849 981.085 38.3047C981.178 37.9193 981.236 37.5078 981.257 37.0703C981.293 36.2943 981.257 35.5807 981.147 34.9297C981.043 34.2786 980.863 33.7005 980.608 33.1953C980.358 32.6901 980.03 32.263 979.624 31.9141C979.218 31.5651 978.733 31.2995 978.171 31.1172C977.608 30.9349 976.965 30.8438 976.241 30.8438C975.585 30.8438 974.978 30.9453 974.421 31.1484C973.869 31.3464 973.371 31.6328 972.928 32.0078C972.491 32.3828 972.113 32.8333 971.796 33.3594C971.483 33.8854 971.236 34.4792 971.053 35.1406C970.876 35.7969 970.772 36.5052 970.741 37.2656C970.704 38.0469 970.746 38.7656 970.866 39.4219C970.986 40.0729 971.178 40.6536 971.444 41.1641C971.715 41.6797 972.056 42.1146 972.468 42.4688C972.879 42.8281 973.356 43.099 973.897 43.2812C974.439 43.4688 975.043 43.5625 975.71 43.5625C976.168 43.5625 976.632 43.5078 977.1 43.3984C977.574 43.2891 977.97 43.1406 978.288 42.9531L978.585 43.8438C978.22 44.0781 977.764 44.2526 977.218 44.3672C976.676 44.4818 976.163 44.5391 975.678 44.5391C974.887 44.5391 974.163 44.4297 973.507 44.2109C972.856 43.9974 972.277 43.6823 971.772 43.2656C971.272 42.8542 970.856 42.3516 970.522 41.7578C970.189 41.1693 969.944 40.4974 969.788 39.7422C969.632 38.987 969.572 38.1615 969.608 37.2656C969.645 36.4115 969.772 35.6068 969.991 34.8516C970.215 34.0964 970.52 33.4115 970.905 32.7969C971.29 32.1823 971.749 31.6536 972.28 31.2109C972.816 30.763 973.418 30.4193 974.085 30.1797C974.757 29.9401 975.486 29.8203 976.272 29.8203C977.074 29.8203 977.801 29.9297 978.452 30.1484C979.103 30.3672 979.673 30.6823 980.163 31.0938C980.658 31.5052 981.066 32.0078 981.389 32.6016C981.712 33.1953 981.947 33.8672 982.093 34.6172C982.244 35.3672 982.301 36.1849 982.264 37.0703ZM974.241 37.7344C974.204 38.099 974.204 38.4245 974.241 38.7109C974.277 38.9974 974.348 39.2396 974.452 39.4375C974.556 39.6354 974.691 39.7865 974.858 39.8906C975.03 39.9896 975.231 40.0391 975.46 40.0391C975.611 40.0391 975.77 40.0026 975.936 39.9297C976.103 39.8516 976.267 39.7318 976.428 39.5703C976.59 39.4089 976.741 39.1979 976.882 38.9375C977.022 38.6771 977.139 38.3646 977.233 38L977.749 38.5625C977.629 38.9896 977.473 39.3646 977.28 39.6875C977.093 40.0104 976.882 40.2812 976.647 40.5C976.413 40.7188 976.163 40.8854 975.897 41C975.637 41.1094 975.371 41.1641 975.1 41.1641C974.72 41.1641 974.387 41.0833 974.1 40.9219C973.814 40.7552 973.582 40.5208 973.405 40.2188C973.228 39.9167 973.103 39.5573 973.03 39.1406C972.962 38.7188 972.952 38.25 972.999 37.7344C973.046 37.1875 973.142 36.6823 973.288 36.2188C973.434 35.7552 973.613 35.3411 973.827 34.9766C974.046 34.612 974.29 34.3021 974.561 34.0469C974.837 33.7917 975.129 33.599 975.436 33.4688C975.744 33.3333 976.059 33.2656 976.382 33.2656C976.944 33.2656 977.387 33.349 977.71 33.5156C978.033 33.6771 978.34 33.8698 978.632 34.0938L977.968 34.8672C977.816 34.7214 977.619 34.5859 977.374 34.4609C977.129 34.3359 976.84 34.2734 976.507 34.2734C976.22 34.2734 975.952 34.3464 975.702 34.4922C975.452 34.638 975.225 34.8568 975.022 35.1484C974.824 35.4401 974.658 35.8021 974.522 36.2344C974.387 36.6615 974.293 37.1615 974.241 37.7344ZM989.827 39.3594V29H991.28V41H989.952L989.827 39.3594ZM984.139 36.8672V36.7031C984.139 36.0573 984.217 35.4714 984.373 34.9453C984.535 34.4141 984.761 33.9583 985.053 33.5781C985.35 33.1979 985.702 32.9062 986.108 32.7031C986.519 32.4948 986.978 32.3906 987.483 32.3906C988.014 32.3906 988.478 32.4844 988.873 32.6719C989.274 32.8542 989.613 33.1224 989.889 33.4766C990.17 33.8255 990.392 34.2474 990.553 34.7422C990.715 35.237 990.827 35.7969 990.889 36.4219V37.1406C990.832 37.7604 990.72 38.3177 990.553 38.8125C990.392 39.3073 990.17 39.7292 989.889 40.0781C989.613 40.4271 989.274 40.6953 988.873 40.8828C988.472 41.0651 988.004 41.1562 987.467 41.1562C986.972 41.1562 986.519 41.0495 986.108 40.8359C985.702 40.6224 985.35 40.3229 985.053 39.9375C984.761 39.5521 984.535 39.099 984.373 38.5781C984.217 38.0521 984.139 37.4818 984.139 36.8672ZM985.592 36.7031V36.8672C985.592 37.2891 985.634 37.6849 985.717 38.0547C985.806 38.4245 985.941 38.75 986.123 39.0312C986.306 39.3125 986.537 39.5339 986.819 39.6953C987.1 39.8516 987.436 39.9297 987.827 39.9297C988.306 39.9297 988.699 39.8281 989.006 39.625C989.319 39.4219 989.569 39.1536 989.756 38.8203C989.944 38.487 990.09 38.125 990.194 37.7344V35.8516C990.131 35.5651 990.04 35.2891 989.92 35.0234C989.806 34.7526 989.655 34.513 989.467 34.3047C989.285 34.0911 989.058 33.9219 988.787 33.7969C988.522 33.6719 988.207 33.6094 987.842 33.6094C987.446 33.6094 987.105 33.6927 986.819 33.8594C986.537 34.0208 986.306 34.2448 986.123 34.5312C985.941 34.8125 985.806 35.1406 985.717 35.5156C985.634 35.8854 985.592 36.2812 985.592 36.7031ZM997.357 41.1562C996.769 41.1562 996.235 41.0573 995.756 40.8594C995.282 40.6562 994.873 40.3724 994.529 40.0078C994.191 39.6432 993.93 39.2109 993.748 38.7109C993.566 38.2109 993.475 37.6641 993.475 37.0703V36.7422C993.475 36.0547 993.576 35.4427 993.779 34.9062C993.982 34.3646 994.259 33.9062 994.607 33.5312C994.956 33.1562 995.352 32.8724 995.795 32.6797C996.238 32.487 996.696 32.3906 997.17 32.3906C997.774 32.3906 998.295 32.4948 998.732 32.7031C999.175 32.9115 999.537 33.2031 999.818 33.5781C1000.1 33.9479 1000.31 34.3854 1000.44 34.8906C1000.58 35.3906 1000.65 35.9375 1000.65 36.5312V37.1797H994.334V36H999.201V35.8906C999.18 35.5156 999.102 35.151 998.967 34.7969C998.837 34.4427 998.628 34.151 998.342 33.9219C998.055 33.6927 997.665 33.5781 997.17 33.5781C996.842 33.5781 996.54 33.6484 996.264 33.7891C995.988 33.9245 995.751 34.1276 995.553 34.3984C995.355 34.6693 995.201 35 995.092 35.3906C994.982 35.7812 994.928 36.2318 994.928 36.7422V37.0703C994.928 37.4714 994.982 37.849 995.092 38.2031C995.206 38.5521 995.371 38.8594 995.584 39.125C995.803 39.3906 996.066 39.599 996.373 39.75C996.686 39.901 997.04 39.9766 997.436 39.9766C997.946 39.9766 998.378 39.8724 998.732 39.6641C999.087 39.4557 999.397 39.1771 999.662 38.8281L1000.54 39.5234C1000.35 39.7995 1000.12 40.0625 999.842 40.3125C999.561 40.5625 999.214 40.7656 998.803 40.9219C998.397 41.0781 997.915 41.1562 997.357 41.1562ZM1005.12 39.6953L1007.43 32.5469H1008.9L1005.87 41H1004.9L1005.12 39.6953ZM1003.19 32.5469L1005.57 39.7344L1005.73 41H1004.76L1001.7 32.5469H1003.19ZM1015.54 38.7578C1015.54 38.5495 1015.49 38.3568 1015.4 38.1797C1015.31 37.9974 1015.12 37.8333 1014.84 37.6875C1014.57 37.5365 1014.15 37.4062 1013.59 37.2969C1013.12 37.1979 1012.7 37.0807 1012.32 36.9453C1011.94 36.8099 1011.62 36.6458 1011.36 36.4531C1011.1 36.2604 1010.9 36.0339 1010.76 35.7734C1010.61 35.513 1010.54 35.2083 1010.54 34.8594C1010.54 34.526 1010.62 34.2109 1010.76 33.9141C1010.91 33.6172 1011.13 33.3542 1011.4 33.125C1011.67 32.8958 1012 32.7161 1012.39 32.5859C1012.77 32.4557 1013.2 32.3906 1013.68 32.3906C1014.35 32.3906 1014.93 32.5104 1015.41 32.75C1015.89 32.9896 1016.26 33.3099 1016.51 33.7109C1016.77 34.1068 1016.9 34.5469 1016.9 35.0312H1015.45C1015.45 34.7969 1015.38 34.5703 1015.24 34.3516C1015.1 34.1276 1014.9 33.9427 1014.64 33.7969C1014.38 33.651 1014.06 33.5781 1013.68 33.5781C1013.28 33.5781 1012.95 33.6406 1012.7 33.7656C1012.46 33.8854 1012.28 34.0391 1012.16 34.2266C1012.05 34.4141 1012 34.612 1012 34.8203C1012 34.9766 1012.02 35.1172 1012.08 35.2422C1012.13 35.362 1012.23 35.474 1012.37 35.5781C1012.51 35.6771 1012.71 35.7708 1012.97 35.8594C1013.22 35.9479 1013.55 36.0365 1013.94 36.125C1014.64 36.2812 1015.21 36.4688 1015.65 36.6875C1016.1 36.9062 1016.43 37.1745 1016.65 37.4922C1016.87 37.8099 1016.98 38.1953 1016.98 38.6484C1016.98 39.0182 1016.9 39.3568 1016.75 39.6641C1016.6 39.9714 1016.38 40.237 1016.08 40.4609C1015.8 40.6797 1015.45 40.8516 1015.05 40.9766C1014.66 41.0964 1014.21 41.1562 1013.72 41.1562C1012.97 41.1562 1012.34 41.0234 1011.83 40.7578C1011.31 40.4922 1010.92 40.1484 1010.65 39.7266C1010.39 39.3047 1010.26 38.8594 1010.26 38.3906H1011.71C1011.73 38.7865 1011.84 39.1016 1012.05 39.3359C1012.26 39.5651 1012.52 39.7292 1012.82 39.8281C1013.12 39.9219 1013.42 39.9688 1013.72 39.9688C1014.11 39.9688 1014.44 39.9167 1014.71 39.8125C1014.98 39.7083 1015.18 39.5651 1015.33 39.3828C1015.47 39.2005 1015.54 38.9922 1015.54 38.7578ZM1022.74 32.5469V33.6562H1018.17V32.5469H1022.74ZM1019.72 30.4922H1021.16V38.9062C1021.16 39.1927 1021.21 39.4089 1021.29 39.5547C1021.38 39.7005 1021.5 39.7969 1021.64 39.8438C1021.78 39.8906 1021.93 39.9141 1022.09 39.9141C1022.21 39.9141 1022.34 39.9036 1022.47 39.8828C1022.6 39.8568 1022.7 39.8359 1022.77 39.8203L1022.78 41C1022.66 41.0365 1022.51 41.0703 1022.33 41.1016C1022.14 41.138 1021.92 41.1562 1021.66 41.1562C1021.31 41.1562 1020.98 41.0859 1020.68 40.9453C1020.39 40.8047 1020.15 40.5703 1019.97 40.2422C1019.8 39.9089 1019.72 39.4609 1019.72 38.8984V30.4922ZM1029.93 39.0469V32.5469H1031.38V41H1030L1029.93 39.0469ZM1030.2 37.2656L1030.8 37.25C1030.8 37.8125 1030.74 38.3333 1030.62 38.8125C1030.51 39.2865 1030.32 39.6979 1030.06 40.0469C1029.8 40.3958 1029.46 40.6693 1029.04 40.8672C1028.61 41.0599 1028.1 41.1562 1027.5 41.1562C1027.09 41.1562 1026.71 41.0964 1026.36 40.9766C1026.03 40.8568 1025.73 40.6719 1025.49 40.4219C1025.24 40.1719 1025.05 39.8464 1024.92 39.4453C1024.79 39.0443 1024.72 38.5625 1024.72 38V32.5469H1026.17V38.0156C1026.17 38.3958 1026.21 38.7109 1026.29 38.9609C1026.38 39.2057 1026.5 39.401 1026.65 39.5469C1026.8 39.6875 1026.96 39.7865 1027.15 39.8438C1027.33 39.901 1027.53 39.9297 1027.72 39.9297C1028.34 39.9297 1028.82 39.8125 1029.18 39.5781C1029.54 39.3385 1029.8 39.0182 1029.96 38.6172C1030.12 38.2109 1030.2 37.7604 1030.2 37.2656ZM1039.23 39.3594V29H1040.68V41H1039.36L1039.23 39.3594ZM1033.54 36.8672V36.7031C1033.54 36.0573 1033.62 35.4714 1033.78 34.9453C1033.94 34.4141 1034.17 33.9583 1034.46 33.5781C1034.75 33.1979 1035.11 32.9062 1035.51 32.7031C1035.92 32.4948 1036.38 32.3906 1036.89 32.3906C1037.42 32.3906 1037.88 32.4844 1038.28 32.6719C1038.68 32.8542 1039.02 33.1224 1039.29 33.4766C1039.57 33.8255 1039.8 34.2474 1039.96 34.7422C1040.12 35.237 1040.23 35.7969 1040.29 36.4219V37.1406C1040.24 37.7604 1040.12 38.3177 1039.96 38.8125C1039.8 39.3073 1039.57 39.7292 1039.29 40.0781C1039.02 40.4271 1038.68 40.6953 1038.28 40.8828C1037.88 41.0651 1037.41 41.1562 1036.87 41.1562C1036.38 41.1562 1035.92 41.0495 1035.51 40.8359C1035.11 40.6224 1034.75 40.3229 1034.46 39.9375C1034.17 39.5521 1033.94 39.099 1033.78 38.5781C1033.62 38.0521 1033.54 37.4818 1033.54 36.8672ZM1035 36.7031V36.8672C1035 37.2891 1035.04 37.6849 1035.12 38.0547C1035.21 38.4245 1035.35 38.75 1035.53 39.0312C1035.71 39.3125 1035.94 39.5339 1036.22 39.6953C1036.5 39.8516 1036.84 39.9297 1037.23 39.9297C1037.71 39.9297 1038.1 39.8281 1038.41 39.625C1038.72 39.4219 1038.97 39.1536 1039.16 38.8203C1039.35 38.487 1039.49 38.125 1039.6 37.7344V35.8516C1039.54 35.5651 1039.44 35.2891 1039.32 35.0234C1039.21 34.7526 1039.06 34.513 1038.87 34.3047C1038.69 34.0911 1038.46 33.9219 1038.19 33.7969C1037.93 33.6719 1037.61 33.6094 1037.25 33.6094C1036.85 33.6094 1036.51 33.6927 1036.22 33.8594C1035.94 34.0208 1035.71 34.2448 1035.53 34.5312C1035.35 34.8125 1035.21 35.1406 1035.12 35.5156C1035.04 35.8854 1035 36.2812 1035 36.7031ZM1044.82 32.5469V41H1043.37V32.5469H1044.82ZM1043.26 30.3047C1043.26 30.0703 1043.33 29.8724 1043.47 29.7109C1043.62 29.5495 1043.83 29.4688 1044.11 29.4688C1044.39 29.4688 1044.6 29.5495 1044.75 29.7109C1044.9 29.8724 1044.97 30.0703 1044.97 30.3047C1044.97 30.5286 1044.9 30.7214 1044.75 30.8828C1044.6 31.0391 1044.39 31.1172 1044.11 31.1172C1043.83 31.1172 1043.62 31.0391 1043.47 30.8828C1043.33 30.7214 1043.26 30.5286 1043.26 30.3047ZM1047.08 36.8672V36.6875C1047.08 36.0781 1047.17 35.513 1047.35 34.9922C1047.52 34.4661 1047.78 34.0104 1048.11 33.625C1048.45 33.2344 1048.85 32.9323 1049.32 32.7188C1049.8 32.5 1050.33 32.3906 1050.92 32.3906C1051.51 32.3906 1052.05 32.5 1052.52 32.7188C1053 32.9323 1053.4 33.2344 1053.74 33.625C1054.08 34.0104 1054.33 34.4661 1054.51 34.9922C1054.69 35.513 1054.78 36.0781 1054.78 36.6875V36.8672C1054.78 37.4766 1054.69 38.0417 1054.51 38.5625C1054.33 39.0833 1054.08 39.5391 1053.74 39.9297C1053.4 40.3151 1053 40.6172 1052.53 40.8359C1052.06 41.0495 1051.53 41.1562 1050.93 41.1562C1050.34 41.1562 1049.81 41.0495 1049.33 40.8359C1048.86 40.6172 1048.45 40.3151 1048.11 39.9297C1047.78 39.5391 1047.52 39.0833 1047.35 38.5625C1047.17 38.0417 1047.08 37.4766 1047.08 36.8672ZM1048.53 36.6875V36.8672C1048.53 37.2891 1048.58 37.6875 1048.68 38.0625C1048.77 38.4323 1048.92 38.7604 1049.12 39.0469C1049.32 39.3333 1049.58 39.5599 1049.88 39.7266C1050.18 39.888 1050.53 39.9688 1050.93 39.9688C1051.33 39.9688 1051.68 39.888 1051.97 39.7266C1052.27 39.5599 1052.52 39.3333 1052.72 39.0469C1052.92 38.7604 1053.07 38.4323 1053.17 38.0625C1053.27 37.6875 1053.32 37.2891 1053.32 36.8672V36.6875C1053.32 36.2708 1053.27 35.8776 1053.17 35.5078C1053.07 35.1328 1052.92 34.8021 1052.71 34.5156C1052.52 34.224 1052.27 33.9948 1051.96 33.8281C1051.67 33.6615 1051.32 33.5781 1050.92 33.5781C1050.52 33.5781 1050.17 33.6615 1049.87 33.8281C1049.57 33.9948 1049.32 34.224 1049.12 34.5156C1048.92 34.8021 1048.77 35.1328 1048.68 35.5078C1048.58 35.8776 1048.53 36.2708 1048.53 36.6875ZM1056.93 40.2344C1056.93 39.9896 1057.01 39.7839 1057.16 39.6172C1057.32 39.4453 1057.54 39.3594 1057.83 39.3594C1058.12 39.3594 1058.34 39.4453 1058.5 39.6172C1058.65 39.7839 1058.73 39.9896 1058.73 40.2344C1058.73 40.474 1058.65 40.6771 1058.5 40.8438C1058.34 41.0104 1058.12 41.0938 1057.83 41.0938C1057.54 41.0938 1057.32 41.0104 1057.16 40.8438C1057.01 40.6771 1056.93 40.474 1056.93 40.2344ZM1064.83 39.9688C1065.18 39.9688 1065.49 39.8984 1065.78 39.7578C1066.08 39.6172 1066.32 39.4245 1066.5 39.1797C1066.69 38.9297 1066.8 38.6458 1066.82 38.3281H1068.2C1068.17 38.8281 1068 39.2943 1067.69 39.7266C1067.38 40.1536 1066.98 40.5 1066.48 40.7656C1065.98 41.026 1065.43 41.1562 1064.83 41.1562C1064.2 41.1562 1063.64 41.0443 1063.17 40.8203C1062.7 40.5964 1062.31 40.2891 1062 39.8984C1061.69 39.5078 1061.46 39.0599 1061.3 38.5547C1061.15 38.0443 1061.07 37.5052 1061.07 36.9375V36.6094C1061.07 36.0417 1061.15 35.5052 1061.3 35C1061.46 34.4896 1061.69 34.0391 1062 33.6484C1062.31 33.2578 1062.7 32.9505 1063.17 32.7266C1063.64 32.5026 1064.2 32.3906 1064.83 32.3906C1065.49 32.3906 1066.07 32.526 1066.57 32.7969C1067.06 33.0625 1067.45 33.4271 1067.73 33.8906C1068.02 34.349 1068.17 34.8698 1068.2 35.4531H1066.82C1066.8 35.1042 1066.7 34.7891 1066.53 34.5078C1066.36 34.2266 1066.13 34.0026 1065.84 33.8359C1065.55 33.6641 1065.22 33.5781 1064.83 33.5781C1064.39 33.5781 1064.02 33.6667 1063.71 33.8438C1063.42 34.0156 1063.18 34.25 1063 34.5469C1062.83 34.8385 1062.71 35.1641 1062.63 35.5234C1062.56 35.8776 1062.52 36.2396 1062.52 36.6094V36.9375C1062.52 37.3073 1062.56 37.6719 1062.63 38.0312C1062.7 38.3906 1062.82 38.7161 1063 39.0078C1063.17 39.2995 1063.41 39.5339 1063.71 39.7109C1064.01 39.8828 1064.38 39.9688 1064.83 39.9688ZM1069.76 36.8672V36.6875C1069.76 36.0781 1069.85 35.513 1070.03 34.9922C1070.2 34.4661 1070.46 34.0104 1070.79 33.625C1071.13 33.2344 1071.53 32.9323 1072 32.7188C1072.48 32.5 1073.01 32.3906 1073.6 32.3906C1074.19 32.3906 1074.72 32.5 1075.2 32.7188C1075.68 32.9323 1076.08 33.2344 1076.42 33.625C1076.76 34.0104 1077.01 34.4661 1077.19 34.9922C1077.37 35.513 1077.46 36.0781 1077.46 36.6875V36.8672C1077.46 37.4766 1077.37 38.0417 1077.19 38.5625C1077.01 39.0833 1076.76 39.5391 1076.42 39.9297C1076.08 40.3151 1075.68 40.6172 1075.21 40.8359C1074.74 41.0495 1074.21 41.1562 1073.61 41.1562C1073.02 41.1562 1072.48 41.0495 1072.01 40.8359C1071.54 40.6172 1071.13 40.3151 1070.79 39.9297C1070.46 39.5391 1070.2 39.0833 1070.03 38.5625C1069.85 38.0417 1069.76 37.4766 1069.76 36.8672ZM1071.21 36.6875V36.8672C1071.21 37.2891 1071.26 37.6875 1071.35 38.0625C1071.45 38.4323 1071.6 38.7604 1071.8 39.0469C1072 39.3333 1072.26 39.5599 1072.56 39.7266C1072.86 39.888 1073.21 39.9688 1073.61 39.9688C1074.01 39.9688 1074.35 39.888 1074.65 39.7266C1074.95 39.5599 1075.2 39.3333 1075.4 39.0469C1075.6 38.7604 1075.75 38.4323 1075.85 38.0625C1075.95 37.6875 1076 37.2891 1076 36.8672V36.6875C1076 36.2708 1075.95 35.8776 1075.85 35.5078C1075.75 35.1328 1075.6 34.8021 1075.39 34.5156C1075.2 34.224 1074.95 33.9948 1074.64 33.8281C1074.35 33.6615 1074 33.5781 1073.6 33.5781C1073.2 33.5781 1072.85 33.6615 1072.55 33.8281C1072.25 33.9948 1072 34.224 1071.8 34.5156C1071.6 34.8021 1071.45 35.1328 1071.35 35.5078C1071.26 35.8776 1071.21 36.2708 1071.21 36.6875ZM1081.03 34.2266V41H1079.57V32.5469H1080.95L1081.03 34.2266ZM1080.73 36.4531L1080.06 36.4297C1080.06 35.8516 1080.14 35.3177 1080.28 34.8281C1080.43 34.3333 1080.65 33.9036 1080.93 33.5391C1081.22 33.1745 1081.58 32.8932 1082 32.6953C1082.43 32.4922 1082.92 32.3906 1083.49 32.3906C1083.88 32.3906 1084.25 32.4479 1084.58 32.5625C1084.91 32.6719 1085.2 32.8464 1085.45 33.0859C1085.69 33.3255 1085.88 33.6328 1086.02 34.0078C1086.15 34.3828 1086.22 34.8359 1086.22 35.3672V41H1084.78V35.4375C1084.78 34.9948 1084.7 34.6406 1084.55 34.375C1084.4 34.1094 1084.2 33.9167 1083.92 33.7969C1083.65 33.6719 1083.34 33.6094 1082.97 33.6094C1082.54 33.6094 1082.19 33.6849 1081.9 33.8359C1081.61 33.987 1081.39 34.1953 1081.21 34.4609C1081.04 34.7266 1080.92 35.0312 1080.84 35.375C1080.77 35.7135 1080.73 36.0729 1080.73 36.4531ZM1086.21 35.6562L1085.24 35.9531C1085.24 35.4896 1085.32 35.0443 1085.46 34.6172C1085.61 34.1901 1085.83 33.8099 1086.11 33.4766C1086.4 33.1432 1086.75 32.8802 1087.17 32.6875C1087.58 32.4896 1088.06 32.3906 1088.6 32.3906C1089.05 32.3906 1089.45 32.4505 1089.8 32.5703C1090.15 32.6901 1090.45 32.875 1090.69 33.125C1090.93 33.3698 1091.12 33.6849 1091.24 34.0703C1091.37 34.4557 1091.43 34.9141 1091.43 35.4453V41H1089.98V35.4297C1089.98 34.9557 1089.9 34.5885 1089.75 34.3281C1089.61 34.0625 1089.4 33.8776 1089.13 33.7734C1088.86 33.6641 1088.54 33.6094 1088.17 33.6094C1087.86 33.6094 1087.58 33.6641 1087.33 33.7734C1087.09 33.8828 1086.88 34.0339 1086.71 34.2266C1086.55 34.4141 1086.42 34.6302 1086.33 34.875C1086.25 35.1198 1086.21 35.3802 1086.21 35.6562Z" fill="#434455"/>
<path d="M354.141 38.0703C354.141 37.8359 354.104 37.6276 354.031 37.4453C353.964 37.263 353.841 37.0964 353.664 36.9453C353.487 36.7943 353.237 36.6484 352.914 36.5078C352.596 36.362 352.19 36.2135 351.695 36.0625C351.154 35.8958 350.654 35.7109 350.195 35.5078C349.742 35.2995 349.346 35.0599 349.008 34.7891C348.669 34.513 348.406 34.1979 348.219 33.8438C348.031 33.4844 347.938 33.0703 347.938 32.6016C347.938 32.138 348.034 31.7161 348.227 31.3359C348.424 30.9557 348.703 30.6276 349.062 30.3516C349.427 30.0703 349.857 29.8542 350.352 29.7031C350.846 29.5469 351.393 29.4688 351.992 29.4688C352.836 29.4688 353.562 29.625 354.172 29.9375C354.786 30.25 355.258 30.6693 355.586 31.1953C355.919 31.7214 356.086 32.3021 356.086 32.9375H354.141C354.141 32.5625 354.06 32.2318 353.898 31.9453C353.742 31.6536 353.503 31.4245 353.18 31.2578C352.862 31.0911 352.458 31.0078 351.969 31.0078C351.505 31.0078 351.12 31.0781 350.812 31.2188C350.505 31.3594 350.276 31.5495 350.125 31.7891C349.974 32.0286 349.898 32.2995 349.898 32.6016C349.898 32.8151 349.948 33.0104 350.047 33.1875C350.146 33.3594 350.297 33.5208 350.5 33.6719C350.703 33.8177 350.958 33.9557 351.266 34.0859C351.573 34.2161 351.935 34.3411 352.352 34.4609C352.982 34.6484 353.531 34.8568 354 35.0859C354.469 35.3099 354.859 35.5651 355.172 35.8516C355.484 36.138 355.719 36.4635 355.875 36.8281C356.031 37.1875 356.109 37.5964 356.109 38.0547C356.109 38.5339 356.013 38.9661 355.82 39.3516C355.628 39.7318 355.352 40.0573 354.992 40.3281C354.638 40.5938 354.211 40.7995 353.711 40.9453C353.216 41.0859 352.664 41.1562 352.055 41.1562C351.508 41.1562 350.969 41.0833 350.438 40.9375C349.911 40.7917 349.432 40.5703 349 40.2734C348.568 39.9714 348.224 39.5964 347.969 39.1484C347.714 38.6953 347.586 38.1667 347.586 37.5625H349.547C349.547 37.9323 349.609 38.2474 349.734 38.5078C349.865 38.7682 350.044 38.9818 350.273 39.1484C350.503 39.3099 350.768 39.4297 351.07 39.5078C351.378 39.5859 351.706 39.625 352.055 39.625C352.513 39.625 352.896 39.5599 353.203 39.4297C353.516 39.2995 353.75 39.1172 353.906 38.8828C354.062 38.6484 354.141 38.3776 354.141 38.0703ZM361.851 32.5469V33.9219H357.086V32.5469H361.851ZM358.461 30.4766H360.343V38.6641C360.343 38.9245 360.38 39.125 360.453 39.2656C360.531 39.401 360.638 39.4922 360.773 39.5391C360.909 39.5859 361.067 39.6094 361.25 39.6094C361.38 39.6094 361.505 39.6016 361.625 39.5859C361.744 39.5703 361.841 39.5547 361.914 39.5391L361.922 40.9766C361.765 41.0234 361.583 41.0651 361.375 41.1016C361.172 41.138 360.937 41.1562 360.672 41.1562C360.239 41.1562 359.856 41.0807 359.523 40.9297C359.19 40.7734 358.929 40.5208 358.742 40.1719C358.554 39.8229 358.461 39.3594 358.461 38.7812V30.4766ZM368.71 39.0078V32.5469H370.601V41H368.82L368.71 39.0078ZM368.976 37.25L369.609 37.2344C369.609 37.8021 369.546 38.3255 369.421 38.8047C369.296 39.2786 369.104 39.6927 368.843 40.0469C368.583 40.3958 368.249 40.6693 367.843 40.8672C367.437 41.0599 366.95 41.1562 366.382 41.1562C365.971 41.1562 365.593 41.0964 365.249 40.9766C364.906 40.8568 364.609 40.6719 364.359 40.4219C364.114 40.1719 363.924 39.8464 363.788 39.4453C363.653 39.0443 363.585 38.5651 363.585 38.0078V32.5469H365.468V38.0234C365.468 38.3307 365.505 38.5885 365.578 38.7969C365.65 39 365.749 39.1641 365.874 39.2891C365.999 39.4141 366.145 39.5026 366.312 39.5547C366.479 39.6068 366.656 39.6328 366.843 39.6328C367.38 39.6328 367.801 39.5286 368.109 39.3203C368.421 39.1068 368.643 38.8203 368.773 38.4609C368.908 38.1016 368.976 37.6979 368.976 37.25ZM378.007 39.25V29H379.897V41H378.187L378.007 39.25ZM372.507 36.8672V36.7031C372.507 36.0625 372.582 35.4792 372.733 34.9531C372.884 34.4219 373.103 33.9661 373.39 33.5859C373.676 33.2005 374.025 32.9062 374.437 32.7031C374.848 32.4948 375.312 32.3906 375.827 32.3906C376.338 32.3906 376.786 32.4896 377.171 32.6875C377.556 32.8854 377.884 33.1693 378.155 33.5391C378.426 33.9036 378.642 34.3411 378.804 34.8516C378.965 35.3568 379.08 35.9193 379.147 36.5391V37.0625C379.08 37.6667 378.965 38.2188 378.804 38.7188C378.642 39.2188 378.426 39.651 378.155 40.0156C377.884 40.3802 377.554 40.6615 377.163 40.8594C376.778 41.0573 376.327 41.1562 375.812 41.1562C375.301 41.1562 374.84 41.0495 374.429 40.8359C374.022 40.6224 373.676 40.3229 373.39 39.9375C373.103 39.5521 372.884 39.099 372.733 38.5781C372.582 38.0521 372.507 37.4818 372.507 36.8672ZM374.39 36.7031V36.8672C374.39 37.2526 374.424 37.612 374.491 37.9453C374.564 38.2786 374.676 38.5729 374.827 38.8281C374.978 39.0781 375.174 39.276 375.413 39.4219C375.658 39.5625 375.95 39.6328 376.288 39.6328C376.715 39.6328 377.067 39.5391 377.343 39.3516C377.619 39.1641 377.835 38.9115 377.991 38.5938C378.153 38.2708 378.262 37.9115 378.319 37.5156V36.1016C378.288 35.7943 378.223 35.5078 378.124 35.2422C378.03 34.9766 377.903 34.7448 377.741 34.5469C377.58 34.3438 377.379 34.1875 377.14 34.0781C376.905 33.9635 376.627 33.9062 376.304 33.9062C375.96 33.9062 375.668 33.9792 375.429 34.125C375.189 34.2708 374.991 34.4714 374.835 34.7266C374.684 34.9818 374.572 35.2786 374.499 35.6172C374.426 35.9557 374.39 36.3177 374.39 36.7031ZM384.202 32.5469V41H382.311V32.5469H384.202ZM382.186 30.3281C382.186 30.0417 382.28 29.8047 382.467 29.6172C382.66 29.4245 382.926 29.3281 383.264 29.3281C383.598 29.3281 383.861 29.4245 384.053 29.6172C384.246 29.8047 384.342 30.0417 384.342 30.3281C384.342 30.6094 384.246 30.8438 384.053 31.0312C383.861 31.2188 383.598 31.3125 383.264 31.3125C382.926 31.3125 382.66 31.2188 382.467 31.0312C382.28 30.8438 382.186 30.6094 382.186 30.3281ZM386.225 36.8672V36.6875C386.225 36.0781 386.314 35.513 386.491 34.9922C386.668 34.4661 386.923 34.0104 387.256 33.625C387.595 33.2344 388.006 32.9323 388.491 32.7188C388.98 32.5 389.532 32.3906 390.147 32.3906C390.767 32.3906 391.319 32.5 391.803 32.7188C392.293 32.9323 392.707 33.2344 393.045 33.625C393.384 34.0104 393.642 34.4661 393.819 34.9922C393.996 35.513 394.084 36.0781 394.084 36.6875V36.8672C394.084 37.4766 393.996 38.0417 393.819 38.5625C393.642 39.0833 393.384 39.5391 393.045 39.9297C392.707 40.3151 392.295 40.6172 391.811 40.8359C391.327 41.0495 390.777 41.1562 390.162 41.1562C389.543 41.1562 388.988 41.0495 388.498 40.8359C388.014 40.6172 387.603 40.3151 387.264 39.9297C386.926 39.5391 386.668 39.0833 386.491 38.5625C386.314 38.0417 386.225 37.4766 386.225 36.8672ZM388.108 36.6875V36.8672C388.108 37.2474 388.147 37.6068 388.225 37.9453C388.303 38.2839 388.426 38.5807 388.592 38.8359C388.759 39.0911 388.972 39.2917 389.233 39.4375C389.493 39.5833 389.803 39.6562 390.162 39.6562C390.511 39.6562 390.814 39.5833 391.069 39.4375C391.329 39.2917 391.543 39.0911 391.709 38.8359C391.876 38.5807 391.998 38.2839 392.077 37.9453C392.16 37.6068 392.202 37.2474 392.202 36.8672V36.6875C392.202 36.3125 392.16 35.9583 392.077 35.625C391.998 35.2865 391.873 34.987 391.702 34.7266C391.535 34.4661 391.321 34.263 391.061 34.1172C390.806 33.9661 390.501 33.8906 390.147 33.8906C389.793 33.8906 389.485 33.9661 389.225 34.1172C388.97 34.263 388.759 34.4661 388.592 34.7266C388.426 34.987 388.303 35.2865 388.225 35.625C388.147 35.9583 388.108 36.3125 388.108 36.6875Z" fill="#2E2F42"/>
<path d="M440.477 36.7578H437.516V35.2031H440.477C440.992 35.2031 441.409 35.1198 441.727 34.9531C442.044 34.7865 442.276 34.5573 442.422 34.2656C442.573 33.9688 442.648 33.6302 442.648 33.25C442.648 32.8906 442.573 32.5547 442.422 32.2422C442.276 31.9245 442.044 31.6693 441.727 31.4766C441.409 31.2839 440.992 31.1875 440.477 31.1875H438.117V41H436.156V29.625H440.477C441.357 29.625 442.104 29.7812 442.719 30.0938C443.339 30.401 443.81 30.8281 444.133 31.375C444.456 31.9167 444.617 32.5365 444.617 33.2344C444.617 33.9688 444.456 34.599 444.133 35.125C443.81 35.651 443.339 36.0547 442.719 36.3359C442.104 36.6172 441.357 36.7578 440.477 36.7578ZM446.039 36.8672V36.6875C446.039 36.0781 446.127 35.513 446.304 34.9922C446.481 34.4661 446.737 34.0104 447.07 33.625C447.409 33.2344 447.82 32.9323 448.304 32.7188C448.794 32.5 449.346 32.3906 449.961 32.3906C450.58 32.3906 451.132 32.5 451.617 32.7188C452.106 32.9323 452.521 33.2344 452.859 33.625C453.198 34.0104 453.455 34.4661 453.632 34.9922C453.81 35.513 453.898 36.0781 453.898 36.6875V36.8672C453.898 37.4766 453.81 38.0417 453.632 38.5625C453.455 39.0833 453.198 39.5391 452.859 39.9297C452.521 40.3151 452.109 40.6172 451.625 40.8359C451.14 41.0495 450.591 41.1562 449.976 41.1562C449.356 41.1562 448.802 41.0495 448.312 40.8359C447.828 40.6172 447.416 40.3151 447.078 39.9297C446.739 39.5391 446.481 39.0833 446.304 38.5625C446.127 38.0417 446.039 37.4766 446.039 36.8672ZM447.922 36.6875V36.8672C447.922 37.2474 447.961 37.6068 448.039 37.9453C448.117 38.2839 448.239 38.5807 448.406 38.8359C448.573 39.0911 448.786 39.2917 449.047 39.4375C449.307 39.5833 449.617 39.6562 449.976 39.6562C450.325 39.6562 450.627 39.5833 450.882 39.4375C451.143 39.2917 451.356 39.0911 451.523 38.8359C451.69 38.5807 451.812 38.2839 451.89 37.9453C451.974 37.6068 452.015 37.2474 452.015 36.8672V36.6875C452.015 36.3125 451.974 35.9583 451.89 35.625C451.812 35.2865 451.687 34.987 451.515 34.7266C451.349 34.4661 451.135 34.263 450.875 34.1172C450.619 33.9661 450.315 33.8906 449.961 33.8906C449.606 33.8906 449.299 33.9661 449.039 34.1172C448.784 34.263 448.573 34.4661 448.406 34.7266C448.239 34.987 448.117 35.2865 448.039 35.625C447.961 35.9583 447.922 36.3125 447.922 36.6875ZM457.687 34.1562V41H455.804V32.5469H457.601L457.687 34.1562ZM460.273 32.4922L460.257 34.2422C460.143 34.2214 460.018 34.2057 459.882 34.1953C459.752 34.1849 459.622 34.1797 459.492 34.1797C459.169 34.1797 458.885 34.2266 458.64 34.3203C458.395 34.4089 458.189 34.5391 458.023 34.7109C457.861 34.8776 457.736 35.0807 457.648 35.3203C457.559 35.5599 457.507 35.8281 457.492 36.125L457.062 36.1562C457.062 35.625 457.114 35.1328 457.218 34.6797C457.322 34.2266 457.479 33.8281 457.687 33.4844C457.9 33.1406 458.166 32.8724 458.484 32.6797C458.807 32.487 459.179 32.3906 459.601 32.3906C459.716 32.3906 459.838 32.401 459.968 32.4219C460.104 32.4427 460.205 32.4661 460.273 32.4922ZM466.038 32.5469V33.9219H461.272V32.5469H466.038ZM462.647 30.4766H464.53V38.6641C464.53 38.9245 464.567 39.125 464.64 39.2656C464.718 39.401 464.825 39.4922 464.96 39.5391C465.095 39.5859 465.254 39.6094 465.437 39.6094C465.567 39.6094 465.692 39.6016 465.812 39.5859C465.931 39.5703 466.028 39.5547 466.101 39.5391L466.108 40.9766C465.952 41.0234 465.77 41.0651 465.562 41.1016C465.358 41.138 465.124 41.1562 464.858 41.1562C464.426 41.1562 464.043 41.0807 463.71 40.9297C463.377 40.7734 463.116 40.5208 462.929 40.1719C462.741 39.8229 462.647 39.3594 462.647 38.7812V30.4766ZM470.358 41H468.475V31.7344C468.475 31.1042 468.593 30.5755 468.827 30.1484C469.066 29.7161 469.408 29.3906 469.85 29.1719C470.293 28.9479 470.816 28.8359 471.421 28.8359C471.608 28.8359 471.793 28.849 471.975 28.875C472.158 28.8958 472.335 28.9297 472.507 28.9766L472.46 30.4297C472.356 30.4036 472.241 30.3854 472.116 30.375C471.996 30.3646 471.866 30.3594 471.725 30.3594C471.439 30.3594 471.191 30.4141 470.983 30.5234C470.78 30.6276 470.624 30.7812 470.514 30.9844C470.41 31.1875 470.358 31.4375 470.358 31.7344V41ZM472.1 32.5469V33.9219H467.178V32.5469H472.1ZM473.428 36.8672V36.6875C473.428 36.0781 473.517 35.513 473.694 34.9922C473.871 34.4661 474.126 34.0104 474.459 33.625C474.798 33.2344 475.209 32.9323 475.694 32.7188C476.183 32.5 476.735 32.3906 477.35 32.3906C477.97 32.3906 478.522 32.5 479.006 32.7188C479.496 32.9323 479.91 33.2344 480.248 33.625C480.587 34.0104 480.845 34.4661 481.022 34.9922C481.199 35.513 481.287 36.0781 481.287 36.6875V36.8672C481.287 37.4766 481.199 38.0417 481.022 38.5625C480.845 39.0833 480.587 39.5391 480.248 39.9297C479.91 40.3151 479.498 40.6172 479.014 40.8359C478.53 41.0495 477.98 41.1562 477.366 41.1562C476.746 41.1562 476.191 41.0495 475.702 40.8359C475.217 40.6172 474.806 40.3151 474.467 39.9297C474.129 39.5391 473.871 39.0833 473.694 38.5625C473.517 38.0417 473.428 37.4766 473.428 36.8672ZM475.311 36.6875V36.8672C475.311 37.2474 475.35 37.6068 475.428 37.9453C475.506 38.2839 475.629 38.5807 475.795 38.8359C475.962 39.0911 476.176 39.2917 476.436 39.4375C476.696 39.5833 477.006 39.6562 477.366 39.6562C477.715 39.6562 478.017 39.5833 478.272 39.4375C478.532 39.2917 478.746 39.0911 478.912 38.8359C479.079 38.5807 479.202 38.2839 479.28 37.9453C479.363 37.6068 479.405 37.2474 479.405 36.8672V36.6875C479.405 36.3125 479.363 35.9583 479.28 35.625C479.202 35.2865 479.077 34.987 478.905 34.7266C478.738 34.4661 478.524 34.263 478.264 34.1172C478.009 33.9661 477.704 33.8906 477.35 33.8906C476.996 33.8906 476.689 33.9661 476.428 34.1172C476.173 34.263 475.962 34.4661 475.795 34.7266C475.629 34.987 475.506 35.2865 475.428 35.625C475.35 35.9583 475.311 36.3125 475.311 36.6875ZM485.201 29V41H483.311V29H485.201ZM489.599 32.5469V41H487.709V32.5469H489.599ZM487.584 30.3281C487.584 30.0417 487.678 29.8047 487.865 29.6172C488.058 29.4245 488.323 29.3281 488.662 29.3281C488.995 29.3281 489.258 29.4245 489.451 29.6172C489.644 29.8047 489.74 30.0417 489.74 30.3281C489.74 30.6094 489.644 30.8438 489.451 31.0312C489.258 31.2188 488.995 31.3125 488.662 31.3125C488.323 31.3125 488.058 31.2188 487.865 31.0312C487.678 30.8438 487.584 30.6094 487.584 30.3281ZM491.623 36.8672V36.6875C491.623 36.0781 491.711 35.513 491.888 34.9922C492.065 34.4661 492.32 34.0104 492.654 33.625C492.992 33.2344 493.404 32.9323 493.888 32.7188C494.378 32.5 494.93 32.3906 495.544 32.3906C496.164 32.3906 496.716 32.5 497.201 32.7188C497.69 32.9323 498.104 33.2344 498.443 33.625C498.781 34.0104 499.039 34.4661 499.216 34.9922C499.393 35.513 499.482 36.0781 499.482 36.6875V36.8672C499.482 37.4766 499.393 38.0417 499.216 38.5625C499.039 39.0833 498.781 39.5391 498.443 39.9297C498.104 40.3151 497.693 40.6172 497.208 40.8359C496.724 41.0495 496.175 41.1562 495.56 41.1562C494.94 41.1562 494.386 41.0495 493.896 40.8359C493.412 40.6172 493 40.3151 492.662 39.9297C492.323 39.5391 492.065 39.0833 491.888 38.5625C491.711 38.0417 491.623 37.4766 491.623 36.8672ZM493.505 36.6875V36.8672C493.505 37.2474 493.544 37.6068 493.623 37.9453C493.701 38.2839 493.823 38.5807 493.99 38.8359C494.156 39.0911 494.37 39.2917 494.63 39.4375C494.891 39.5833 495.201 39.6562 495.56 39.6562C495.909 39.6562 496.211 39.5833 496.466 39.4375C496.727 39.2917 496.94 39.0911 497.107 38.8359C497.274 38.5807 497.396 38.2839 497.474 37.9453C497.557 37.6068 497.599 37.2474 497.599 36.8672V36.6875C497.599 36.3125 497.557 35.9583 497.474 35.625C497.396 35.2865 497.271 34.987 497.099 34.7266C496.932 34.4661 496.719 34.263 496.458 34.1172C496.203 33.9661 495.899 33.8906 495.544 33.8906C495.19 33.8906 494.883 33.9661 494.623 34.1172C494.367 34.263 494.156 34.4661 493.99 34.7266C493.823 34.987 493.701 35.2865 493.623 35.625C493.544 35.9583 493.505 36.3125 493.505 36.6875Z" fill="#2E2F42"/>
<path d="M548.875 37.2969H550.828C550.766 38.0417 550.557 38.7057 550.203 39.2891C549.849 39.8672 549.352 40.3229 548.711 40.6562C548.07 40.9896 547.292 41.1562 546.375 41.1562C545.672 41.1562 545.039 41.0312 544.477 40.7812C543.914 40.526 543.432 40.1667 543.031 39.7031C542.63 39.2344 542.323 38.6693 542.109 38.0078C541.901 37.3464 541.797 36.6068 541.797 35.7891V34.8438C541.797 34.026 541.904 33.2865 542.117 32.625C542.336 31.9635 542.648 31.3984 543.055 30.9297C543.461 30.4557 543.948 30.0938 544.516 29.8438C545.089 29.5938 545.732 29.4688 546.445 29.4688C547.352 29.4688 548.117 29.6354 548.742 29.9688C549.367 30.3021 549.852 30.763 550.195 31.3516C550.544 31.9401 550.758 32.6146 550.836 33.375H548.883C548.831 32.8854 548.716 32.4661 548.539 32.1172C548.367 31.7682 548.112 31.5026 547.773 31.3203C547.435 31.1328 546.992 31.0391 546.445 31.0391C545.997 31.0391 545.607 31.1224 545.273 31.2891C544.94 31.4557 544.661 31.7005 544.438 32.0234C544.214 32.3464 544.044 32.7448 543.93 33.2188C543.82 33.6875 543.766 34.224 543.766 34.8281V35.7891C543.766 36.362 543.815 36.8828 543.914 37.3516C544.018 37.8151 544.174 38.2135 544.383 38.5469C544.596 38.8802 544.867 39.138 545.195 39.3203C545.523 39.5026 545.917 39.5938 546.375 39.5938C546.932 39.5938 547.383 39.5052 547.727 39.3281C548.076 39.151 548.339 38.8932 548.516 38.5547C548.698 38.2109 548.818 37.7917 548.875 37.2969ZM552.382 36.8672V36.6875C552.382 36.0781 552.471 35.513 552.648 34.9922C552.825 34.4661 553.08 34.0104 553.414 33.625C553.752 33.2344 554.164 32.9323 554.648 32.7188C555.138 32.5 555.69 32.3906 556.304 32.3906C556.924 32.3906 557.476 32.5 557.961 32.7188C558.45 32.9323 558.864 33.2344 559.203 33.625C559.541 34.0104 559.799 34.4661 559.976 34.9922C560.153 35.513 560.242 36.0781 560.242 36.6875V36.8672C560.242 37.4766 560.153 38.0417 559.976 38.5625C559.799 39.0833 559.541 39.5391 559.203 39.9297C558.864 40.3151 558.453 40.6172 557.968 40.8359C557.484 41.0495 556.935 41.1562 556.32 41.1562C555.7 41.1562 555.146 41.0495 554.656 40.8359C554.172 40.6172 553.76 40.3151 553.422 39.9297C553.083 39.5391 552.825 39.0833 552.648 38.5625C552.471 38.0417 552.382 37.4766 552.382 36.8672ZM554.265 36.6875V36.8672C554.265 37.2474 554.304 37.6068 554.382 37.9453C554.461 38.2839 554.583 38.5807 554.75 38.8359C554.916 39.0911 555.13 39.2917 555.39 39.4375C555.651 39.5833 555.961 39.6562 556.32 39.6562C556.669 39.6562 556.971 39.5833 557.226 39.4375C557.487 39.2917 557.7 39.0911 557.867 38.8359C558.034 38.5807 558.156 38.2839 558.234 37.9453C558.317 37.6068 558.359 37.2474 558.359 36.8672V36.6875C558.359 36.3125 558.317 35.9583 558.234 35.625C558.156 35.2865 558.031 34.987 557.859 34.7266C557.692 34.4661 557.479 34.263 557.218 34.1172C556.963 33.9661 556.659 33.8906 556.304 33.8906C555.95 33.8906 555.643 33.9661 555.382 34.1172C555.127 34.263 554.916 34.4661 554.75 34.7266C554.583 34.987 554.461 35.2865 554.382 35.625C554.304 35.9583 554.265 36.3125 554.265 36.6875ZM564.007 34.3516V41H562.124V32.5469H563.898L564.007 34.3516ZM563.671 36.4609L563.062 36.4531C563.067 35.8542 563.15 35.3047 563.312 34.8047C563.479 34.3047 563.708 33.875 563.999 33.5156C564.296 33.1562 564.65 32.8802 565.062 32.6875C565.473 32.4896 565.932 32.3906 566.437 32.3906C566.843 32.3906 567.21 32.4479 567.538 32.5625C567.872 32.6719 568.156 32.8516 568.39 33.1016C568.63 33.3516 568.812 33.6771 568.937 34.0781C569.062 34.474 569.124 34.9609 569.124 35.5391V41H567.234V35.5312C567.234 35.125 567.174 34.8047 567.054 34.5703C566.939 34.3307 566.77 34.1615 566.546 34.0625C566.327 33.9583 566.054 33.9062 565.726 33.9062C565.403 33.9062 565.114 33.974 564.859 34.1094C564.604 34.2448 564.387 34.4297 564.21 34.6641C564.038 34.8984 563.906 35.1693 563.812 35.4766C563.718 35.7839 563.671 36.112 563.671 36.4609ZM575.241 32.5469V33.9219H570.476V32.5469H575.241ZM571.851 30.4766H573.733V38.6641C573.733 38.9245 573.77 39.125 573.843 39.2656C573.921 39.401 574.028 39.4922 574.163 39.5391C574.299 39.5859 574.457 39.6094 574.64 39.6094C574.77 39.6094 574.895 39.6016 575.015 39.5859C575.134 39.5703 575.231 39.5547 575.304 39.5391L575.312 40.9766C575.155 41.0234 574.973 41.0651 574.765 41.1016C574.562 41.138 574.327 41.1562 574.062 41.1562C573.629 41.1562 573.246 41.0807 572.913 40.9297C572.58 40.7734 572.319 40.5208 572.132 40.1719C571.944 39.8229 571.851 39.3594 571.851 38.7812V30.4766ZM581.78 39.3047V35.2734C581.78 34.9714 581.725 34.7109 581.616 34.4922C581.507 34.2734 581.34 34.1042 581.116 33.9844C580.897 33.8646 580.621 33.8047 580.288 33.8047C579.981 33.8047 579.715 33.8568 579.491 33.9609C579.267 34.0651 579.092 34.2057 578.967 34.3828C578.842 34.5599 578.78 34.7604 578.78 34.9844H576.905C576.905 34.651 576.986 34.3281 577.147 34.0156C577.309 33.7031 577.543 33.4245 577.85 33.1797C578.158 32.9349 578.525 32.7422 578.952 32.6016C579.379 32.4609 579.858 32.3906 580.389 32.3906C581.025 32.3906 581.587 32.4974 582.077 32.7109C582.572 32.9245 582.96 33.2474 583.241 33.6797C583.527 34.1068 583.671 34.6432 583.671 35.2891V39.0469C583.671 39.4323 583.697 39.7786 583.749 40.0859C583.806 40.388 583.887 40.651 583.991 40.875V41H582.061C581.973 40.7969 581.902 40.5391 581.85 40.2266C581.803 39.9089 581.78 39.6016 581.78 39.3047ZM582.053 35.8594L582.069 37.0234H580.717C580.369 37.0234 580.061 37.0573 579.796 37.125C579.53 37.1875 579.309 37.2812 579.132 37.4062C578.954 37.5312 578.822 37.6823 578.733 37.8594C578.645 38.0365 578.6 38.237 578.6 38.4609C578.6 38.6849 578.652 38.8906 578.757 39.0781C578.861 39.2604 579.012 39.4036 579.21 39.5078C579.413 39.612 579.658 39.6641 579.944 39.6641C580.329 39.6641 580.665 39.5859 580.952 39.4297C581.244 39.2682 581.473 39.0729 581.639 38.8438C581.806 38.6094 581.895 38.388 581.905 38.1797L582.514 39.0156C582.452 39.2292 582.345 39.4583 582.194 39.7031C582.043 39.9479 581.845 40.1823 581.6 40.4062C581.361 40.625 581.072 40.8047 580.733 40.9453C580.4 41.0859 580.014 41.1562 579.577 41.1562C579.025 41.1562 578.533 41.0469 578.1 40.8281C577.668 40.6042 577.329 40.3047 577.085 39.9297C576.84 39.5495 576.717 39.1198 576.717 38.6406C576.717 38.1927 576.801 37.7969 576.967 37.4531C577.139 37.1042 577.389 36.8125 577.717 36.5781C578.051 36.3438 578.457 36.1667 578.936 36.0469C579.415 35.9219 579.962 35.8594 580.577 35.8594H582.053ZM589.412 39.6562C589.72 39.6562 589.996 39.5964 590.241 39.4766C590.491 39.3516 590.691 39.1797 590.842 38.9609C590.998 38.7422 591.084 38.4896 591.1 38.2031H592.873C592.863 38.75 592.702 39.2474 592.389 39.6953C592.077 40.1432 591.662 40.5 591.147 40.7656C590.631 41.026 590.061 41.1562 589.436 41.1562C588.79 41.1562 588.228 41.0469 587.748 40.8281C587.269 40.6042 586.871 40.2969 586.553 39.9062C586.235 39.5156 585.996 39.0651 585.834 38.5547C585.678 38.0443 585.6 37.4974 585.6 36.9141V36.6406C585.6 36.0573 585.678 35.5104 585.834 35C585.996 34.4844 586.235 34.0312 586.553 33.6406C586.871 33.25 587.269 32.9453 587.748 32.7266C588.228 32.5026 588.787 32.3906 589.428 32.3906C590.105 32.3906 590.699 32.526 591.209 32.7969C591.72 33.0625 592.121 33.4349 592.412 33.9141C592.709 34.388 592.863 34.9401 592.873 35.5703H591.1C591.084 35.2578 591.006 34.9766 590.866 34.7266C590.73 34.4714 590.537 34.2682 590.287 34.1172C590.043 33.9661 589.748 33.8906 589.405 33.8906C589.024 33.8906 588.709 33.9688 588.459 34.125C588.209 34.276 588.014 34.4844 587.873 34.75C587.733 35.0104 587.631 35.3047 587.569 35.6328C587.511 35.9557 587.483 36.2917 587.483 36.6406V36.9141C587.483 37.263 587.511 37.6016 587.569 37.9297C587.626 38.2578 587.725 38.5521 587.866 38.8125C588.011 39.0677 588.209 39.2734 588.459 39.4297C588.709 39.5807 589.027 39.6562 589.412 39.6562ZM598.514 32.5469V33.9219H593.748V32.5469H598.514ZM595.123 30.4766H597.006V38.6641C597.006 38.9245 597.042 39.125 597.115 39.2656C597.193 39.401 597.3 39.4922 597.436 39.5391C597.571 39.5859 597.73 39.6094 597.912 39.6094C598.042 39.6094 598.167 39.6016 598.287 39.5859C598.407 39.5703 598.503 39.5547 598.576 39.5391L598.584 40.9766C598.428 41.0234 598.246 41.0651 598.037 41.1016C597.834 41.138 597.6 41.1562 597.334 41.1562C596.902 41.1562 596.519 41.0807 596.186 40.9297C595.852 40.7734 595.592 40.5208 595.404 40.1719C595.217 39.8229 595.123 39.3594 595.123 38.7812V30.4766ZM605.029 38.7109C605.029 38.5234 604.982 38.3542 604.888 38.2031C604.795 38.0469 604.615 37.9062 604.349 37.7812C604.089 37.6562 603.704 37.5417 603.193 37.4375C602.745 37.3385 602.334 37.2214 601.959 37.0859C601.589 36.9453 601.271 36.776 601.006 36.5781C600.74 36.3802 600.534 36.1458 600.388 35.875C600.243 35.6042 600.17 35.2917 600.17 34.9375C600.17 34.5938 600.245 34.2682 600.396 33.9609C600.547 33.6536 600.763 33.3828 601.045 33.1484C601.326 32.9141 601.667 32.7292 602.068 32.5938C602.474 32.4583 602.928 32.3906 603.428 32.3906C604.136 32.3906 604.743 32.5104 605.248 32.75C605.758 32.9844 606.149 33.3047 606.42 33.7109C606.691 34.112 606.826 34.5651 606.826 35.0703H604.943C604.943 34.8464 604.886 34.638 604.771 34.4453C604.662 34.2474 604.495 34.0885 604.271 33.9688C604.047 33.8438 603.766 33.7812 603.428 33.7812C603.105 33.7812 602.836 33.8333 602.623 33.9375C602.414 34.0365 602.258 34.1667 602.154 34.3281C602.055 34.4896 602.006 34.6667 602.006 34.8594C602.006 35 602.032 35.1276 602.084 35.2422C602.141 35.3516 602.235 35.4531 602.365 35.5469C602.495 35.6354 602.672 35.7188 602.896 35.7969C603.125 35.875 603.412 35.9505 603.756 36.0234C604.401 36.1589 604.956 36.3333 605.42 36.5469C605.888 36.7552 606.248 37.026 606.498 37.3594C606.748 37.6875 606.873 38.1042 606.873 38.6094C606.873 38.9844 606.792 39.3281 606.631 39.6406C606.474 39.9479 606.245 40.2161 605.943 40.4453C605.641 40.6693 605.279 40.8438 604.857 40.9688C604.441 41.0938 603.972 41.1562 603.451 41.1562C602.685 41.1562 602.037 41.0208 601.506 40.75C600.974 40.474 600.571 40.1224 600.295 39.6953C600.024 39.263 599.888 38.8151 599.888 38.3516H601.709C601.73 38.7005 601.826 38.9792 601.998 39.1875C602.175 39.3906 602.394 39.5391 602.654 39.6328C602.92 39.7214 603.193 39.7656 603.474 39.7656C603.813 39.7656 604.097 39.7214 604.326 39.6328C604.555 39.5391 604.73 39.4141 604.849 39.2578C604.969 39.0964 605.029 38.9141 605.029 38.7109Z" fill="#2E2F42"/>
<path d="M161.436 29.238H164.154L165.486 33.324L166.818 29.238H169.554L167.376 35.178L168.672 38.58L171.876 29.22H175.098L170.112 42H167.556L165.486 36.996L163.434 42H160.86L155.892 29.22H159.096L162.318 38.58L163.578 35.178L161.436 29.238ZM185.73 39.408V42H176.748V29.22H185.568V31.812H179.7V34.296H184.74V36.69H179.7V39.408H185.73ZM198.63 38.724C198.63 39.456 198.432 40.068 198.036 40.56C197.652 41.04 197.13 41.4 196.47 41.64C195.81 41.88 195.084 42 194.292 42H188.064V29.22H195.174C195.774 29.22 196.29 29.382 196.722 29.706C197.166 30.018 197.502 30.426 197.73 30.93C197.97 31.434 198.09 31.956 198.09 32.496C198.09 33.096 197.934 33.672 197.622 34.224C197.31 34.764 196.854 35.172 196.254 35.448C196.986 35.664 197.562 36.048 197.982 36.6C198.414 37.152 198.63 37.86 198.63 38.724ZM195.624 38.13C195.624 37.854 195.57 37.614 195.462 37.41C195.354 37.194 195.21 37.026 195.03 36.906C194.862 36.774 194.658 36.708 194.418 36.708H191.016V39.498H194.292C194.544 39.498 194.766 39.438 194.958 39.318C195.162 39.198 195.324 39.036 195.444 38.832C195.564 38.628 195.624 38.394 195.624 38.13ZM191.016 31.74V34.386H193.914C194.13 34.386 194.328 34.338 194.508 34.242C194.7 34.146 194.856 34.002 194.976 33.81C195.096 33.606 195.156 33.354 195.156 33.054C195.156 32.766 195.102 32.526 194.994 32.334C194.898 32.142 194.766 31.998 194.598 31.902C194.43 31.794 194.238 31.74 194.022 31.74H191.016Z" fill="#4D5AE5"/>
<path d="M208.892 32.964C208.856 32.904 208.73 32.814 208.514 32.694C208.298 32.562 208.028 32.424 207.704 32.28C207.38 32.136 207.026 32.01 206.642 31.902C206.258 31.794 205.874 31.74 205.49 31.74C204.986 31.74 204.596 31.83 204.32 32.01C204.044 32.178 203.906 32.442 203.906 32.802C203.906 33.09 204.008 33.318 204.212 33.486C204.428 33.654 204.734 33.804 205.13 33.936C205.526 34.056 206.012 34.2 206.588 34.368C207.404 34.584 208.112 34.848 208.712 35.16C209.312 35.46 209.768 35.85 210.08 36.33C210.404 36.81 210.566 37.446 210.566 38.238C210.566 38.958 210.434 39.57 210.17 40.074C209.906 40.566 209.546 40.968 209.09 41.28C208.646 41.58 208.136 41.802 207.56 41.946C206.984 42.078 206.39 42.144 205.778 42.144C205.154 42.144 204.512 42.084 203.852 41.964C203.204 41.832 202.58 41.652 201.98 41.424C201.38 41.184 200.828 40.896 200.324 40.56L201.62 37.986C201.668 38.046 201.824 38.16 202.088 38.328C202.352 38.484 202.676 38.652 203.06 38.832C203.456 39 203.894 39.15 204.374 39.282C204.854 39.414 205.34 39.48 205.832 39.48C206.36 39.48 206.75 39.396 207.002 39.228C207.266 39.06 207.398 38.826 207.398 38.526C207.398 38.202 207.26 37.95 206.984 37.77C206.72 37.59 206.354 37.428 205.886 37.284C205.43 37.14 204.902 36.978 204.302 36.798C203.522 36.558 202.874 36.288 202.358 35.988C201.854 35.688 201.476 35.322 201.224 34.89C200.984 34.458 200.864 33.918 200.864 33.27C200.864 32.37 201.074 31.614 201.494 31.002C201.926 30.378 202.502 29.91 203.222 29.598C203.942 29.274 204.728 29.112 205.58 29.112C206.18 29.112 206.756 29.184 207.308 29.328C207.872 29.472 208.394 29.652 208.874 29.868C209.366 30.084 209.804 30.3 210.188 30.516L208.892 32.964ZM222.576 31.812H218.688V42H215.736V31.812H211.83V29.22H222.576V31.812ZM230.048 42.108C229.028 42.108 228.158 41.94 227.438 41.604C226.718 41.256 226.13 40.788 225.674 40.2C225.23 39.6 224.9 38.922 224.684 38.166C224.48 37.398 224.378 36.594 224.378 35.754V29.22H227.33V35.754C227.33 36.234 227.378 36.702 227.474 37.158C227.57 37.602 227.726 37.998 227.942 38.346C228.158 38.694 228.434 38.97 228.77 39.174C229.118 39.378 229.544 39.48 230.048 39.48C230.564 39.48 230.996 39.378 231.344 39.174C231.692 38.958 231.968 38.676 232.172 38.328C232.376 37.968 232.526 37.566 232.622 37.122C232.718 36.678 232.766 36.222 232.766 35.754V29.22H235.718V35.754C235.718 36.642 235.604 37.47 235.376 38.238C235.16 39.006 234.824 39.684 234.368 40.272C233.912 40.848 233.324 41.298 232.604 41.622C231.896 41.946 231.044 42.108 230.048 42.108ZM238.545 42V29.22H243.315C244.719 29.22 245.889 29.508 246.825 30.084C247.773 30.648 248.487 31.416 248.967 32.388C249.447 33.348 249.687 34.416 249.687 35.592C249.687 36.888 249.423 38.016 248.895 38.976C248.367 39.936 247.623 40.68 246.663 41.208C245.715 41.736 244.599 42 243.315 42H238.545ZM246.681 35.592C246.681 34.848 246.549 34.194 246.285 33.63C246.021 33.054 245.637 32.61 245.133 32.298C244.629 31.974 244.023 31.812 243.315 31.812H241.497V39.408H243.315C244.035 39.408 244.641 39.246 245.133 38.922C245.637 38.586 246.021 38.13 246.285 37.554C246.549 36.966 246.681 36.312 246.681 35.592ZM251.97 42V29.22H254.922V42H251.97ZM263.504 42.108C262.544 42.108 261.674 41.928 260.894 41.568C260.126 41.196 259.46 40.704 258.896 40.092C258.344 39.468 257.918 38.772 257.618 38.004C257.318 37.224 257.168 36.42 257.168 35.592C257.168 34.74 257.324 33.93 257.636 33.162C257.96 32.394 258.404 31.71 258.968 31.11C259.544 30.498 260.222 30.018 261.002 29.67C261.782 29.322 262.634 29.148 263.558 29.148C264.506 29.148 265.364 29.334 266.132 29.706C266.912 30.066 267.578 30.558 268.13 31.182C268.694 31.806 269.126 32.508 269.426 33.288C269.726 34.056 269.876 34.842 269.876 35.646C269.876 36.498 269.72 37.308 269.408 38.076C269.096 38.844 268.652 39.534 268.076 40.146C267.5 40.746 266.822 41.226 266.042 41.586C265.274 41.934 264.428 42.108 263.504 42.108ZM260.174 35.628C260.174 36.12 260.246 36.6 260.39 37.068C260.534 37.524 260.744 37.932 261.02 38.292C261.308 38.652 261.662 38.94 262.082 39.156C262.502 39.372 262.982 39.48 263.522 39.48C264.086 39.48 264.578 39.372 264.998 39.156C265.418 38.928 265.766 38.628 266.042 38.256C266.318 37.884 266.522 37.47 266.654 37.014C266.798 36.546 266.87 36.072 266.87 35.592C266.87 35.1 266.798 34.626 266.654 34.17C266.51 33.714 266.294 33.306 266.006 32.946C265.718 32.574 265.364 32.286 264.944 32.082C264.524 31.878 264.05 31.776 263.522 31.776C262.958 31.776 262.466 31.884 262.046 32.1C261.638 32.316 261.29 32.61 261.002 32.982C260.726 33.342 260.516 33.756 260.372 34.224C260.24 34.68 260.174 35.148 260.174 35.628Z" fill="#2E2F42"/>
</svg>
